<svg width="39" height="45" viewBox="0 0 39 45" fill="none" xmlns="http://www.w3.org/2000/svg">
<path d="M4.10309 41.4644C3.42975 41.4644 2.83642 41.3277 2.32309 41.0544C1.81642 40.7744 1.41975 40.3844 1.13309 39.8844C0.846419 39.3844 0.703086 38.8077 0.703086 38.1544C0.703086 37.6077 0.793086 37.121 0.973086 36.6944C1.15975 36.261 1.41642 35.8944 1.74309 35.5944C2.06975 35.2877 2.44642 35.0544 2.87309 34.8944C3.30642 34.7277 3.76975 34.6444 4.26309 34.6444C4.62309 34.6444 4.97975 34.6944 5.33309 34.7944C5.68642 34.8877 6.01975 35.0277 6.33309 35.2144L5.84309 36.1644C5.54975 35.9244 5.25642 35.7444 4.96309 35.6244C4.66975 35.5044 4.35975 35.4444 4.03309 35.4444C3.58642 35.4444 3.19975 35.5477 2.87309 35.7544C2.54642 35.961 2.29642 36.2544 2.12309 36.6344C1.94975 37.0077 1.86309 37.4544 1.86309 37.9744C1.86309 38.521 1.96642 38.9977 2.17309 39.4044C2.38642 39.811 2.66975 40.1277 3.02309 40.3544C3.38309 40.5744 3.77642 40.6844 4.20309 40.6844C4.55642 40.6844 4.88309 40.6177 5.18309 40.4844C5.48309 40.351 5.74309 40.171 5.96309 39.9444L6.41309 40.7844C6.07309 41.011 5.70975 41.181 5.32309 41.2944C4.93642 41.4077 4.52975 41.4644 4.10309 41.4644ZM9.68652 41.3444V34.7644H10.7565V41.3444H9.68652ZM10.0265 41.3444V40.5044H13.9965V41.3444H10.0265ZM19.7714 41.4644C19.1247 41.4644 18.5514 41.321 18.0514 41.0344C17.5514 40.741 17.158 40.341 16.8714 39.8344C16.5847 39.321 16.4414 38.741 16.4414 38.0944C16.4414 37.5744 16.5314 37.1044 16.7114 36.6844C16.898 36.2577 17.1514 35.8944 17.4714 35.5944C17.798 35.2944 18.1714 35.061 18.5914 34.8944C19.0114 34.7277 19.4614 34.6444 19.9414 34.6444C20.5814 34.6444 21.148 34.791 21.6414 35.0844C22.1414 35.371 22.5347 35.7677 22.8214 36.2744C23.108 36.781 23.2514 37.361 23.2514 38.0144C23.2514 38.5344 23.158 39.0077 22.9714 39.4344C22.7914 39.8544 22.5414 40.2177 22.2214 40.5244C21.9014 40.8244 21.5314 41.0577 21.1114 41.2244C20.6914 41.3844 20.2447 41.4644 19.7714 41.4644ZM19.9614 40.6744C20.3947 40.6744 20.7714 40.571 21.0914 40.3644C21.4114 40.1577 21.658 39.8677 21.8314 39.4944C22.0114 39.1144 22.1014 38.6744 22.1014 38.1744C22.1014 37.6144 21.9947 37.131 21.7814 36.7244C21.568 36.311 21.2847 35.9944 20.9314 35.7744C20.578 35.5477 20.178 35.4344 19.7314 35.4344C19.318 35.4344 18.9514 35.5377 18.6314 35.7444C18.3114 35.9444 18.0614 36.2344 17.8814 36.6144C17.708 36.9877 17.6214 37.4277 17.6214 37.9344C17.6214 38.4944 17.7247 38.981 17.9314 39.3944C18.1447 39.801 18.428 40.1177 18.7814 40.3444C19.1347 40.5644 19.528 40.6744 19.9614 40.6744ZM29.5522 39.7344C29.5522 39.5344 29.4956 39.361 29.3822 39.2144C29.2756 39.0677 29.1322 38.9377 28.9522 38.8244C28.7722 38.711 28.5722 38.6044 28.3522 38.5044C28.1389 38.4044 27.9256 38.2977 27.7122 38.1844C27.4989 38.071 27.2989 37.9444 27.1122 37.8044C26.9322 37.6577 26.7856 37.4844 26.6722 37.2844C26.5656 37.0844 26.5122 36.8477 26.5122 36.5744C26.5122 36.1677 26.6089 35.8244 26.8022 35.5444C26.9956 35.2577 27.2556 35.0377 27.5822 34.8844C27.9089 34.7244 28.2722 34.6444 28.6722 34.6444C28.9322 34.6444 29.2122 34.6777 29.5122 34.7444C29.8189 34.811 30.0889 34.9077 30.3222 35.0344L29.9422 35.9944C29.7422 35.821 29.5056 35.6877 29.2322 35.5944C28.9589 35.4944 28.7056 35.4444 28.4722 35.4444C28.2389 35.4444 28.0489 35.4877 27.9022 35.5744C27.7622 35.661 27.6589 35.771 27.5922 35.9044C27.5322 36.0377 27.5022 36.171 27.5022 36.3044C27.5022 36.4844 27.5556 36.641 27.6622 36.7744C27.7756 36.901 27.9222 37.0177 28.1022 37.1244C28.2889 37.231 28.4889 37.3377 28.7022 37.4444C28.9222 37.5444 29.1389 37.6544 29.3522 37.7744C29.5722 37.8877 29.7722 38.0244 29.9522 38.1844C30.1389 38.3377 30.2856 38.5177 30.3922 38.7244C30.5056 38.931 30.5622 39.1777 30.5622 39.4644C30.5622 39.891 30.4556 40.2544 30.2422 40.5544C30.0356 40.8544 29.7589 41.081 29.4122 41.2344C29.0722 41.3877 28.6922 41.4644 28.2722 41.4644C27.8522 41.4644 27.4589 41.401 27.0922 41.2744C26.7322 41.1477 26.4356 40.9944 26.2022 40.8144L26.7222 39.9244C26.9622 40.1377 27.2389 40.311 27.5522 40.4444C27.8722 40.5777 28.1889 40.6444 28.5022 40.6444C28.8156 40.6444 29.0689 40.5644 29.2622 40.4044C29.4556 40.2377 29.5522 40.0144 29.5522 39.7344ZM38.3059 41.3444H34.0459V34.7644H37.9759V35.6144H35.0859V40.4944H38.3059V41.3444ZM34.3859 38.4244V37.5944H37.5959V38.4244H34.3859Z" fill="#FCEE21"/>
<path d="M12 0.34436L27.5 16.6602" stroke="#FCEE21" stroke-dasharray="1 1"/>
<path d="M27.5 0.34436L12 16.6602" stroke="#FCEE21"/>
</svg>
