<svg width="122" height="122" viewBox="0 0 122 122" fill="none" xmlns="http://www.w3.org/2000/svg">
<path d="M122 61C122 27.3106 94.6894 -5.24521e-06 61 -5.24521e-06C27.3106 -5.24521e-06 0 27.3106 0 61C0 94.6894 27.3106 122 61 122C94.6894 122 122 94.6894 122 61Z" fill="black"/>
<path d="M61 116.5C91.6518 116.5 116.5 91.6518 116.5 61C116.5 30.3482 91.6518 5.5 61 5.5C30.3482 5.5 5.5 30.3482 5.5 61C5.5 91.6518 30.3482 116.5 61 116.5Z" fill="black" stroke="#FCEE21"/>
<path d="M46.1031 90.12C45.4298 90.12 44.8364 89.9833 44.3231 89.71C43.8164 89.43 43.4198 89.04 43.1331 88.54C42.8464 88.04 42.7031 87.4633 42.7031 86.81C42.7031 86.2633 42.7931 85.7767 42.9731 85.35C43.1598 84.9167 43.4164 84.55 43.7431 84.25C44.0698 83.9433 44.4464 83.71 44.8731 83.55C45.3064 83.3833 45.7698 83.3 46.2631 83.3C46.6231 83.3 46.9798 83.35 47.3331 83.45C47.6864 83.5433 48.0198 83.6833 48.3331 83.87L47.8431 84.82C47.5498 84.58 47.2564 84.4 46.9631 84.28C46.6698 84.16 46.3598 84.1 46.0331 84.1C45.5864 84.1 45.1998 84.2033 44.8731 84.41C44.5464 84.6167 44.2964 84.91 44.1231 85.29C43.9498 85.6633 43.8631 86.11 43.8631 86.63C43.8631 87.1767 43.9664 87.6533 44.1731 88.06C44.3864 88.4667 44.6698 88.7833 45.0231 89.01C45.3831 89.23 45.7764 89.34 46.2031 89.34C46.5564 89.34 46.8831 89.2733 47.1831 89.14C47.4831 89.0067 47.7431 88.8267 47.9631 88.6L48.4131 89.44C48.0731 89.6667 47.7098 89.8367 47.3231 89.95C46.9364 90.0633 46.5298 90.12 46.1031 90.12ZM51.6865 90V83.42H52.7565V90H51.6865ZM52.0265 90V89.16H55.9965V90H52.0265ZM61.7714 90.12C61.1247 90.12 60.5514 89.9767 60.0514 89.69C59.5514 89.3967 59.158 88.9967 58.8714 88.49C58.5847 87.9767 58.4414 87.3967 58.4414 86.75C58.4414 86.23 58.5314 85.76 58.7114 85.34C58.898 84.9133 59.1514 84.55 59.4714 84.25C59.798 83.95 60.1714 83.7167 60.5914 83.55C61.0114 83.3833 61.4614 83.3 61.9414 83.3C62.5814 83.3 63.148 83.4467 63.6414 83.74C64.1414 84.0267 64.5347 84.4233 64.8214 84.93C65.108 85.4367 65.2514 86.0167 65.2514 86.67C65.2514 87.19 65.158 87.6633 64.9714 88.09C64.7914 88.51 64.5414 88.8733 64.2214 89.18C63.9014 89.48 63.5314 89.7133 63.1114 89.88C62.6914 90.04 62.2447 90.12 61.7714 90.12ZM61.9614 89.33C62.3947 89.33 62.7714 89.2267 63.0914 89.02C63.4114 88.8133 63.658 88.5233 63.8314 88.15C64.0114 87.77 64.1014 87.33 64.1014 86.83C64.1014 86.27 63.9947 85.7867 63.7814 85.38C63.568 84.9667 63.2847 84.65 62.9314 84.43C62.578 84.2033 62.178 84.09 61.7314 84.09C61.318 84.09 60.9514 84.1933 60.6314 84.4C60.3114 84.6 60.0614 84.89 59.8814 85.27C59.708 85.6433 59.6214 86.0833 59.6214 86.59C59.6214 87.15 59.7247 87.6367 59.9314 88.05C60.1447 88.4567 60.428 88.7733 60.7814 89C61.1347 89.22 61.528 89.33 61.9614 89.33ZM71.5522 88.39C71.5522 88.19 71.4956 88.0167 71.3822 87.87C71.2756 87.7233 71.1322 87.5933 70.9522 87.48C70.7722 87.3667 70.5722 87.26 70.3522 87.16C70.1389 87.06 69.9256 86.9533 69.7122 86.84C69.4989 86.7267 69.2989 86.6 69.1122 86.46C68.9322 86.3133 68.7856 86.14 68.6722 85.94C68.5656 85.74 68.5122 85.5033 68.5122 85.23C68.5122 84.8233 68.6089 84.48 68.8022 84.2C68.9956 83.9133 69.2556 83.6933 69.5822 83.54C69.9089 83.38 70.2722 83.3 70.6722 83.3C70.9322 83.3 71.2122 83.3333 71.5122 83.4C71.8189 83.4667 72.0889 83.5633 72.3222 83.69L71.9422 84.65C71.7422 84.4767 71.5056 84.3433 71.2322 84.25C70.9589 84.15 70.7056 84.1 70.4722 84.1C70.2389 84.1 70.0489 84.1433 69.9022 84.23C69.7622 84.3167 69.6589 84.4267 69.5922 84.56C69.5322 84.6933 69.5022 84.8267 69.5022 84.96C69.5022 85.14 69.5556 85.2967 69.6622 85.43C69.7756 85.5567 69.9222 85.6733 70.1022 85.78C70.2889 85.8867 70.4889 85.9933 70.7022 86.1C70.9222 86.2 71.1389 86.31 71.3522 86.43C71.5722 86.5433 71.7722 86.68 71.9522 86.84C72.1389 86.9933 72.2856 87.1733 72.3922 87.38C72.5056 87.5867 72.5622 87.8333 72.5622 88.12C72.5622 88.5467 72.4556 88.91 72.2422 89.21C72.0356 89.51 71.7589 89.7367 71.4122 89.89C71.0722 90.0433 70.6922 90.12 70.2722 90.12C69.8522 90.12 69.4589 90.0567 69.0922 89.93C68.7322 89.8033 68.4356 89.65 68.2022 89.47L68.7222 88.58C68.9622 88.7933 69.2389 88.9667 69.5522 89.1C69.8722 89.2333 70.1889 89.3 70.5022 89.3C70.8156 89.3 71.0689 89.22 71.2622 89.06C71.4556 88.8933 71.5522 88.67 71.5522 88.39ZM80.3059 90H76.0459V83.42H79.9759V84.27H77.0859V89.15H80.3059V90ZM76.3859 87.08V86.25H79.5959V87.08H76.3859Z" fill="#FCEE21"/>
<path d="M53.75 49L69.25 65.3158" stroke="#FCEE21" stroke-dasharray="1 1"/>
<path d="M69.25 49L53.75 65.3158" stroke="#FCEE21"/>
</svg>
