<svg width="96" height="96" viewBox="0 0 96 96" fill="none" xmlns="http://www.w3.org/2000/svg">
<path d="M96 48C96 21.4903 74.5097 -5.36442e-07 48 -5.36442e-07C21.4903 -5.36442e-07 0 21.4903 0 48C0 74.5097 21.4903 96 48 96C74.5097 96 96 74.5097 96 48Z" fill="#F2F6FD"/>
<path d="M48 91.5C72.0244 91.5 91.5 72.0244 91.5 48C91.5 23.9756 72.0244 4.5 48 4.5C23.9756 4.5 4.5 23.9756 4.5 48C4.5 72.0244 23.9756 91.5 48 91.5Z" stroke="black"/>
<path d="M34.93 74.59L34.88 73.62C34.96 73.6267 35.1167 73.6333 35.35 73.64C35.59 73.64 35.8767 73.64 36.21 73.64C36.55 73.64 36.9067 73.64 37.28 73.64C37.66 73.64 38.0267 73.64 38.38 73.64C38.74 73.6333 39.06 73.63 39.34 73.63C39.6267 73.6233 39.84 73.62 39.98 73.62V70.87C39.8667 70.87 39.6767 70.87 39.41 70.87C39.1433 70.87 38.8333 70.8733 38.48 70.88C38.1267 70.88 37.76 70.8833 37.38 70.89C37 70.89 36.6367 70.8933 36.29 70.9C35.95 70.9 35.6567 70.9033 35.41 70.91C35.1633 70.9167 34.9967 70.9233 34.91 70.93L34.89 69.97C34.9967 69.9767 35.2033 69.9833 35.51 69.99C35.8167 69.9967 36.18 70 36.6 70C37.02 70 37.46 70 37.92 70C38.38 69.9933 38.82 69.99 39.24 69.99C39.66 69.9833 40.0233 69.98 40.33 69.98C40.6367 69.9733 40.8433 69.9667 40.95 69.96V74.52C40.7433 74.52 40.4667 74.52 40.12 74.52C39.7733 74.52 39.3867 74.5233 38.96 74.53C38.54 74.53 38.1133 74.5333 37.68 74.54C37.2533 74.5467 36.8467 74.5533 36.46 74.56C36.08 74.56 35.7533 74.5633 35.48 74.57C35.2067 74.5767 35.0233 74.5833 34.93 74.59ZM47.29 75.72C46.81 75.72 46.43 75.69 46.15 75.63C45.87 75.5633 45.67 75.44 45.55 75.26C45.43 75.0733 45.37 74.8033 45.37 74.45V68.71H46.32C46.3133 68.8967 46.3067 69.1533 46.3 69.48C46.2933 69.8067 46.2867 70.16 46.28 70.54C46.28 70.92 46.28 71.2833 46.28 71.63C46.58 71.5433 46.9 71.4433 47.24 71.33C47.5867 71.2167 47.93 71.1 48.27 70.98C48.6167 70.8533 48.9433 70.73 49.25 70.61C49.5567 70.4833 49.82 70.3633 50.04 70.25L50.54 71.11C50.2733 71.2233 49.9633 71.3433 49.61 71.47C49.2567 71.59 48.8833 71.7133 48.49 71.84C48.1033 71.96 47.7167 72.0767 47.33 72.19C46.95 72.2967 46.6 72.3933 46.28 72.48V74.13C46.28 74.31 46.3033 74.4467 46.35 74.54C46.3967 74.6333 46.4867 74.6967 46.62 74.73C46.7533 74.7633 46.95 74.78 47.21 74.78C47.49 74.78 47.8067 74.7733 48.16 74.76C48.5133 74.7467 48.8733 74.73 49.24 74.71C49.6067 74.6833 49.9567 74.6567 50.29 74.63C50.6233 74.5967 50.9133 74.56 51.16 74.52C51.14 74.6 51.12 74.71 51.1 74.85C51.08 74.9833 51.0633 75.1133 51.05 75.24C51.0433 75.3667 51.04 75.4633 51.04 75.53C50.7 75.5633 50.3067 75.5967 49.86 75.63C49.42 75.6567 48.9733 75.68 48.52 75.7C48.0733 75.7133 47.6633 75.72 47.29 75.72ZM51.72 70.61C51.4533 70.61 51.2233 70.5133 51.03 70.32C50.8367 70.1267 50.74 69.8967 50.74 69.63C50.74 69.3567 50.8367 69.1267 51.03 68.94C51.2233 68.7467 51.4533 68.65 51.72 68.65C51.9933 68.65 52.2233 68.7467 52.41 68.94C52.6033 69.1267 52.7 69.3567 52.7 69.63C52.7 69.8967 52.6033 70.1267 52.41 70.32C52.2233 70.5133 51.9933 70.61 51.72 70.61ZM51.72 70.24C51.8933 70.24 52.0367 70.18 52.15 70.06C52.27 69.94 52.33 69.7967 52.33 69.63C52.33 69.4633 52.27 69.32 52.15 69.2C52.0367 69.08 51.8933 69.02 51.72 69.02C51.5533 69.02 51.41 69.08 51.29 69.2C51.17 69.32 51.11 69.4633 51.11 69.63C51.11 69.7967 51.17 69.94 51.29 70.06C51.41 70.18 51.5533 70.24 51.72 70.24ZM53.95 72.7C53.95 72.64 53.95 72.5467 53.95 72.42C53.95 72.2867 53.95 72.1567 53.95 72.03C53.95 71.9033 53.9467 71.81 53.94 71.75C54.1067 71.7567 54.3567 71.7633 54.69 71.77C55.0233 71.77 55.41 71.7733 55.85 71.78C56.2967 71.78 56.7667 71.7833 57.26 71.79C57.76 71.79 58.2567 71.79 58.75 71.79C59.25 71.79 59.72 71.79 60.16 71.79C60.6 71.7833 60.9867 71.7767 61.32 71.77C61.6533 71.7633 61.9 71.7567 62.06 71.75C62.06 71.77 62.06 71.8 62.06 71.84C62.06 71.88 62.06 71.9233 62.06 71.97C62.06 72.09 62.0567 72.2267 62.05 72.38C62.05 72.5267 62.0533 72.63 62.06 72.69C61.8533 72.6833 61.5467 72.6767 61.14 72.67C60.7333 72.6633 60.2667 72.66 59.74 72.66C59.22 72.6533 58.6767 72.65 58.11 72.65C57.5433 72.65 56.99 72.6533 56.45 72.66C55.91 72.66 55.42 72.6633 54.98 72.67C54.5467 72.6767 54.2033 72.6867 53.95 72.7Z" fill="#020202"/>
<path d="M59.1919 32.772V43.8812C59.1919 44.975 58.2953 45.8643 57.1925 45.8643H45.2635C44.1608 45.8643 43.2642 44.975 43.2642 43.8812V27.9831C43.2642 26.8893 44.1608 26 45.2635 26H52.3644" stroke="#020202" stroke-linecap="round" stroke-linejoin="round"/>
<path d="M54.3637 32.772C56.1473 32.772 57.0391 30.6367 55.7781 29.386C54.5172 28.1352 52.3644 29.0198 52.3644 30.7889C52.3644 31.8827 53.261 32.772 54.3637 32.772Z" stroke="#020202" stroke-linecap="round" stroke-linejoin="round"/>
<path d="M38.7141 32.3202H38.436C37.3332 32.3202 36.4366 33.2095 36.4366 34.3033V50.6485C36.4366 51.7423 37.3332 52.6316 38.436 52.6316H50.365C51.4678 52.6316 52.3644 51.7423 52.3644 50.6485V50.3726" stroke="#020202" stroke-linejoin="round" stroke-dasharray="1 1"/>
</svg>
