<svg width="6" height="9" viewBox="0 0 6 9" fill="none" xmlns="http://www.w3.org/2000/svg">
<g clip-path="url(#clip0_3_10)">
<path d="M5.26752 2.44737C5.26752 1.00203 3.92142 -0.149261 2.32947 0.0158558C1.13672 0.140259 0.165483 1.0337 0.0194319 2.14202C-0.0730668 2.84772 0.160614 3.50367 0.596332 3.99676C1.20731 4.68889 1.64059 5.5009 1.95704 6.34684L2.12986 6.81053C2.29539 7.25612 2.97452 7.25612 3.14005 6.81053L3.37129 6.18851C3.678 5.36971 4.15997 4.62329 4.72713 3.93342C5.06548 3.52176 5.26752 3.00832 5.26752 2.44963V2.44737Z" fill="#FCEE21"/>
<path d="M2.74576 7.49585H2.52425C2.34276 7.49585 2.19563 7.63256 2.19563 7.8012V7.80346C2.19563 7.97211 2.34276 8.10882 2.52425 8.10882H2.74576C2.92725 8.10882 3.07437 7.97211 3.07437 7.80346V7.8012C3.07437 7.63256 2.92725 7.49585 2.74576 7.49585Z" fill="#FCEE21"/>
<path d="M2.63621 8.38702H2.63377C2.45229 8.38702 2.30516 8.52373 2.30516 8.69238V8.69464C2.30516 8.86328 2.45229 8.99999 2.63377 8.99999H2.63621C2.8177 8.99999 2.96482 8.86328 2.96482 8.69464V8.69238C2.96482 8.52373 2.8177 8.38702 2.63621 8.38702Z" fill="#FCEE21"/>
</g>
<defs>
<clipPath id="clip0_3_10">
<rect width="5.26756" height="9" fill="white"/>
</clipPath>
</defs>
</svg>
