<svg width="310" height="342" viewBox="0 0 310 342" fill="none" xmlns="http://www.w3.org/2000/svg">
<path d="M252.432 190.138C285.896 145.77 273.588 81.041 223.686 51.3545C186.281 29.1336 137.482 35.3557 107.594 66.1893C88.5775 85.8329 80.1545 111.07 81.3501 135.719C83.0102 170.304 76.7513 204.69 66.3249 237.566L60.5918 255.573C55.0662 272.865 74.7241 287.692 89.8319 277.627L110.927 263.582C138.762 245.143 169.995 232.752 202.384 223.957C221.709 218.707 239.445 207.357 252.38 190.207L252.432 190.138Z" stroke="#EADD1D" stroke-width="11"/>
<path d="M62.5539 290.058L56.1422 285.222C50.8889 281.26 43.465 282.245 39.5605 287.422L39.5081 287.491C35.6036 292.668 36.6969 300.077 41.9502 304.039L48.3619 308.875C53.6151 312.837 61.039 311.852 64.9435 306.676L64.9959 306.606C68.9005 301.429 67.8071 294.021 62.5539 290.058Z" stroke="#EADD1D" stroke-width="11"/>
<path d="M38.7498 315.024L38.6793 314.97C33.4261 311.008 26.0022 311.993 22.0977 317.17L22.0453 317.239C18.1408 322.416 19.2341 329.825 24.4873 333.787L24.5578 333.84C29.8111 337.802 37.2349 336.817 41.1395 331.641L41.1919 331.571C45.0964 326.394 44.0031 318.986 38.7498 315.024Z" stroke="#EADD1D" stroke-width="11"/>
</svg>
