<svg width="283" height="223" viewBox="0 0 283 223" fill="none" xmlns="http://www.w3.org/2000/svg">
<path d="M221.478 165.196C215.108 171.748 211.64 178.741 201 178.08C195.598 177.744 191.482 174.241 186.353 178.088C178.959 183.631 180.758 200.616 175.336 203.759C171.938 205.731 171.718 201.131 168.982 202.804C166.974 204.034 165.329 213.558 163.032 214.61C159.437 216.26 158.196 208.951 154.269 208.321C149.722 207.59 145.934 212.484 141.561 213.172C136.32 213.995 131.033 210.59 127.268 215.843C125.912 217.733 125.249 221.498 122.686 222.074C120.813 222.496 117.912 221.232 115.434 221.367C110.821 221.622 106.694 224.687 102.024 221.703C99.8813 220.335 93.1262 210.3 92.0549 207.737C87.7044 197.304 93.1763 180.678 89.6195 171.137C88.425 167.933 85.689 167.941 83.1534 166.414C78.9184 163.862 74.5524 159.301 69.2578 159.556C64.1981 159.796 65.5931 163.77 64.4101 167.094C63.1384 170.67 56.707 174.887 53.0269 174.616C51.4932 174.504 49.9364 173.476 48.3681 173.09C44.3682 172.108 40.2411 171.582 36.2527 170.554C27.9523 168.416 26.1836 167.415 22.5844 159.525C21.3667 156.858 16.1992 144.504 16.3148 142.428C16.573 137.689 24.8272 133.896 28.3146 136.382C29.8714 137.491 30.5072 142.551 33.7287 138.245C35.7441 135.551 35.6516 133.587 39.455 132.006C41.112 131.318 47.1966 130.471 46.9654 128.083C45.0733 124.886 41.1736 123.672 38.6111 121.024C32.5418 114.758 31.7056 105.105 26.4379 98.8316C21.1702 92.5578 16.2416 89.705 13.3284 80.6711C12.2224 77.25 11.8988 72.565 10.631 69.4609C9.36317 66.3568 5.3594 62.6922 4.75441 59.1243C4.2496 56.1633 5.52125 53.5656 5.34399 50.8326C5.03956 46.1011 0.426953 42.1119 0.0454587 36.0158C-0.532563 26.7462 4.5232 27.2835 8.29961 21.5005C10.893 17.5267 9.95275 15.6596 15.1935 13.3403C23.8908 9.49017 34.9387 11.6394 42.5532 16.9546C44.7882 18.5163 47.6629 22.4051 50.6956 21.918C52.788 21.5817 53.2504 16.7768 53.9171 15.0759C56.5259 8.40781 62.0864 7.87049 68.4562 7.98259C75.6044 8.10629 82.8798 9.18479 90.0241 9.54042C99.3419 10.0043 102.725 10.2594 111.615 7.2404C115.908 5.78307 121.65 2.00639 125.942 4.43785C127.014 5.04475 136.158 15.505 137.01 16.916C138.058 18.6555 138.547 20.2906 137.237 22.1152C135.449 24.6085 124.201 26.4408 120.775 28.4084C115.38 31.5086 115.484 36.6266 114.232 41.9456C113.65 44.4158 111.141 50.4229 112.775 52.4368C113.546 53.3878 114.975 53.0476 115.673 52.174C116.906 50.6277 118.313 42.1351 119.43 39.4253C120.016 38.0027 121.303 36.097 122.605 35.2659C124.975 33.7506 139.553 29.2047 142.474 28.9109C145.761 28.5823 147.892 29.7227 150.146 31.957C155.676 37.4422 161.464 46.3949 166.516 52.6456C168.654 55.2896 173.618 62.2129 175.756 63.8635C180.327 67.3928 189.729 65.1082 194.523 62.5685C211.648 53.4844 209.613 33.6656 221.817 24.2335C225.882 21.0908 231.25 20.1167 231.986 13.9472C232.302 11.2993 231.173 7.13216 233.481 5.28441C236.56 2.82203 240.587 6.23535 243.574 7.04712C247.4 8.08696 252.857 7.7004 256.452 6.01501C260.047 4.32961 263.612 -0.479179 267.477 0.0388101C269.527 0.313267 278.644 6.24694 280.536 7.83957C286.158 12.571 280.494 14.3028 279.816 17.8746C279.257 20.8202 281.442 23.9243 279.796 26.3635C277.758 29.3863 271.635 27.1404 269.881 31.1027C267.288 36.959 274.54 45.5754 271.272 50.2798C269.985 52.1315 266.039 52.634 264.76 54.1841C262.309 57.149 265.488 61.1653 260.07 63.0092C257.797 63.7823 251.096 63.937 252.209 67.9263C253.346 71.9967 262.483 69.6387 261.689 77.7796C258.024 88.3829 255.361 99.8483 251.3 110.262C248.618 117.139 242.113 126.467 233.801 125.86C230.349 125.609 226.241 122.056 223.343 123.97C221.659 125.083 220.811 127.213 220.807 129.188C220.8 132.091 224.013 141.624 225.52 144.206C228.252 148.883 234.291 145.246 235.793 147.816C236.757 149.467 235.955 150.866 234.915 152.196C232.106 155.783 225.94 160.264 222.553 163.766C222.098 164.233 221.855 164.806 221.478 165.196Z" fill="#FF4800"/>
<path d="M73.9828 123.88C73.9828 122.409 73.9274 121.808 73.8209 121.429C73.7654 121.211 73.4926 120.883 73.3306 120.828C72.6229 120.61 72.4609 120.5 72.4609 120.393C72.4609 120.176 73.1132 120.176 73.6589 120.176C75.2405 120.176 78.2885 120.448 79.269 121.702C79.6485 122.192 79.6485 123.117 79.6485 123.774V151.662C79.6485 153.189 78.3951 154.493 76.8178 154.493C75.0742 154.493 73.9871 153.184 73.9871 151.607V123.88H73.9828ZM91.4657 142.181C88.1959 142.181 86.0175 140.22 84.6021 138.042C83.7836 136.789 83.1868 135.48 83.1868 135.045C83.1868 134.883 83.2976 134.828 83.4042 134.828C83.4596 134.828 83.5662 134.939 83.677 135.101C84.2227 135.864 85.2586 135.919 85.8555 135.919C86.5077 135.919 88.5796 135.591 90.9754 135.211C91.5211 135.101 91.8451 135.049 92.3353 135.049C94.1855 135.049 95.7117 136.52 95.7117 138.426C95.7117 140.877 93.6952 142.186 91.4614 142.186L91.4657 142.181Z" fill="white"/>
<path d="M102.686 137.603C102.686 136.785 102.686 134.934 102.358 134.116C102.196 133.736 102.029 133.681 101.377 133.464C101.215 133.408 101.16 133.353 101.16 133.302C101.16 133.14 101.595 133.029 102.741 133.029C104.323 133.029 106.719 133.14 107.755 134.5C108.245 135.152 108.356 135.915 108.356 137.062V146.376C108.356 147.903 107.102 149.207 105.525 149.207C103.948 149.207 102.694 147.954 102.694 146.376V137.607L102.686 137.603ZM125.728 141.414C125.728 145.609 125.455 150.946 124.909 153.236C123.767 157.921 119.517 163.096 114.503 163.096C113.032 163.096 112.214 162.495 112.214 162.06C112.214 161.954 112.325 161.898 112.431 161.898C112.487 161.898 112.866 162.06 112.922 162.06C114.883 162.06 117.389 158.518 118.314 156.288C119.947 152.311 120.003 147.574 120.003 142.126V140.11C120.003 138.75 120.003 135.859 119.785 134.5C119.674 133.847 119.406 133.574 118.967 133.519C118.532 133.464 118.476 133.408 118.476 133.302C118.476 133.14 118.749 133.029 119.785 133.029C121.311 133.029 122.999 133.14 124.359 133.792C125.502 134.338 125.719 135.318 125.719 136.623V141.414H125.728Z" fill="white"/>
<path d="M138.53 135.173C138.53 139.475 138.641 141.926 139.4 144.65C140.325 147.971 143.16 148.9 146.48 148.9H149.043C150.893 148.9 152.474 150.154 152.474 152.115C152.474 155.111 148.881 155.491 146.647 155.491C141.527 155.491 137.332 153.202 135.316 148.465C134.28 146.014 133.956 141.602 133.956 138.059V127.274C133.956 125.202 133.576 124.767 133.193 124.66C133.031 124.605 132.813 124.55 132.813 124.388C132.813 124.226 133.086 124.17 133.794 124.17C135.972 124.17 138.534 124.878 138.534 127.385V135.173H138.53Z" fill="white"/>
<path d="M167.455 136.461C167.126 136.461 166.363 136.571 165.928 136.571C165.822 136.571 165.656 136.409 165.438 136.137C164.786 135.373 164.675 135.211 164.185 135.045C164.023 134.99 163.967 134.934 163.967 134.828C163.967 134.666 164.129 134.61 164.24 134.61H184.669C186.029 134.61 187.175 134.009 188.207 133.084C189.35 132.048 190.279 131.285 191.912 131.285C194.742 131.285 196.107 133.408 196.107 136.026C196.107 140.327 193.655 143.981 190.334 146.159C187.939 147.741 185.052 148.828 182.218 148.828C181.783 148.828 180.367 148.717 180.367 148.175C180.367 148.065 180.478 148.013 180.585 148.013H181.13C183.253 148.013 186.14 145.016 187.124 143C188.16 140.877 188.433 138.699 188.595 136.465H167.459L167.455 136.461ZM175.461 143.375C178.564 143.375 178.675 146.752 178.675 149.096C178.675 151.82 178.074 154.706 176.876 157.158C175.243 160.427 171.756 163.531 168.051 163.531C167.288 163.531 166.09 163.203 166.09 162.661C166.09 162.55 166.201 162.444 166.308 162.444C166.414 162.444 166.581 162.661 166.798 162.661C167.723 162.661 168.704 161.625 169.249 160.973C170.609 159.285 171.428 157.269 171.918 155.201C172.353 153.402 172.57 151.552 172.57 149.697C172.57 148.606 172.464 147.463 172.464 146.321C172.464 144.633 173.772 143.379 175.461 143.379V143.375Z" fill="white"/>
<path d="M155.953 134.593C158.174 133.016 158.579 129.836 156.712 127.747C155.309 126.174 152.952 125.765 151.102 126.766C149.921 127.406 149.153 128.45 148.838 129.614C148.395 131.243 147.585 132.748 146.604 134.12L146.067 134.871C145.551 135.595 146.237 136.559 147.09 136.311L148.284 135.962C149.852 135.506 151.49 135.378 153.122 135.438C154.099 135.472 155.092 135.203 155.953 134.593Z" fill="white"/>
<path d="M145.642 136.498L145.418 136.182C145.234 135.923 144.874 135.862 144.615 136.046L144.612 136.048C144.353 136.232 144.292 136.592 144.476 136.851L144.7 137.167C144.884 137.426 145.244 137.487 145.503 137.303L145.506 137.301C145.765 137.117 145.826 136.757 145.642 136.498Z" fill="white"/>
<path d="M144.158 137.314L144.155 137.311C143.971 137.051 143.612 136.99 143.353 137.175L143.349 137.177C143.09 137.361 143.029 137.72 143.213 137.979L143.216 137.983C143.4 138.242 143.759 138.303 144.018 138.119L144.022 138.116C144.281 137.932 144.342 137.573 144.158 137.314Z" fill="white"/>
<path d="M159.142 126.805C158.98 126.677 158.92 126.455 158.988 126.255L160.237 122.683C160.387 122.26 160.898 122.107 161.239 122.384L162.91 123.723C163.256 124 163.226 124.537 162.855 124.78L159.709 126.83C159.534 126.946 159.308 126.933 159.146 126.805H159.142Z" fill="white"/>
<path d="M160.165 128.778C160.156 128.57 160.284 128.378 160.476 128.301L163.955 126.941C164.364 126.779 164.807 127.078 164.82 127.525L164.888 129.699C164.901 130.147 164.479 130.475 164.061 130.343L160.51 129.235C160.314 129.175 160.178 128.992 160.169 128.778H160.165Z" fill="white"/>
<path d="M85.4973 101.359C85.2543 99.9902 86.3797 99.2016 87.6032 98.9841C89.1123 98.7198 90.8432 98.0036 91.1373 96.5073C91.1544 96.3922 91.1629 96.243 91.2354 96.2302C91.4144 96.2004 91.6787 96.8569 91.7768 97.394C92.2159 99.8751 90.3273 102.433 87.8803 102.868C86.7634 103.064 85.6976 102.476 85.5015 101.359H85.4973ZM86.1282 91.268C85.9108 91.3064 85.4589 91.4598 85.2415 91.4982C85.0965 91.5238 84.7811 91.2083 84.6489 91.0847C84.5168 90.9611 84.4315 90.9014 84.2397 90.8588C84.0478 90.8204 83.8901 90.7735 83.873 90.6627C83.856 90.5518 83.954 90.5007 84.0265 90.4879L91.7597 89.1237L90.6044 82.5756C90.4083 81.4587 90.2463 80.9685 89.5813 80.977C89.3212 80.9855 89.2829 80.9557 89.2701 80.8832C89.2402 80.7041 89.3085 80.6914 89.884 80.589C90.5661 80.4697 91.538 80.2992 92.4034 80.3674C93.6823 80.4739 94.1982 81.0878 94.3985 82.2047L98.2097 103.827C98.3888 104.833 97.7109 105.843 96.6708 106.027C95.5922 106.219 94.6458 105.494 94.471 104.488L91.9601 90.2406L86.1325 91.268H86.1282ZM109.456 96.9123C109.439 96.8057 109.481 96.648 109.626 96.6224C109.771 96.5968 109.873 96.7631 109.937 97.1255C110.04 97.701 110.389 98.0122 111.481 98.3021C112.879 98.6474 113.898 99.176 114.115 100.399C114.35 101.73 113.489 102.736 112.231 102.957L106.007 104.053C104.532 104.313 103.087 103.269 102.827 101.794L99.0922 80.6018C98.96 79.8473 98.798 79.357 98.4484 79.2675C98.3717 79.2462 98.2907 79.2206 98.2865 79.1865C98.2609 79.0416 98.3674 79.0245 98.7639 78.952C99.9533 78.7431 101.373 79.0117 101.62 80.4143L104.911 99.0865C104.988 99.517 105.453 99.8453 105.922 99.76L109.844 99.0694L109.464 96.9123H109.456ZM106.433 88.804C105.858 88.9063 105.67 88.902 105.653 88.7912C105.636 88.6803 105.662 88.642 105.806 88.6164C106.489 88.497 106.885 88.2029 106.761 87.5208C106.71 87.2352 106.403 86.3229 106.365 86.1054C106.16 84.9544 106.996 83.8034 108.151 83.603C109.302 83.3984 110.483 84.1956 110.692 85.3807C111.093 87.6487 108.164 88.497 106.437 88.804H106.433Z" fill="white"/>
<path d="M126.035 96.2683C124.645 97.4364 122.782 98.6812 120.885 98.6812C120.812 98.6812 120.702 98.6812 120.702 98.5704C120.702 98.4979 121.324 98.0972 121.725 97.7647C123.477 96.3408 124.428 95.0619 125.489 92.9432C127.463 89.1064 128.23 84.8689 128.375 80.5973H126.039C125.783 80.5973 125.344 80.7082 125.127 80.7082C125.016 80.7082 124.871 80.5249 124.76 80.3799C124.577 80.1241 124.432 79.83 124.104 79.7575C123.993 79.7575 123.959 79.7191 123.959 79.6126C123.959 79.5401 124.031 79.5017 124.104 79.5017H128.452C128.49 78.4402 128.563 75.5541 128.669 74.7143C128.78 73.802 129.62 73.1455 130.605 73.1455C132.651 73.1455 132.651 75.8142 132.651 77.6388C132.651 78.2612 132.651 78.8793 132.613 79.5017H135.354C136.01 79.5017 136.522 79.1735 136.999 78.7344C137.366 78.3678 137.767 78.112 138.312 78.112C139.263 78.112 140.03 78.9177 140.03 79.8641V94.7677C140.03 95.2409 140.431 95.6459 140.909 95.6459H143.138V91.8092C143.138 91.7367 143.177 91.6642 143.249 91.6642C143.36 91.6642 143.394 91.8092 143.394 91.92C143.394 93.4164 144.306 93.783 145.768 94.3329C147.086 94.8445 148.36 95.7568 148.36 97.3639C148.36 98.9711 147.047 100.105 145.513 100.105H140.035C138.538 100.105 137.293 98.8262 137.293 97.3298V80.5931H132.544C132.105 85.6363 130.059 92.9389 126.043 96.2641L126.035 96.2683Z" fill="white"/>
<path d="M155.876 89.7461C156.081 88.5951 157.215 87.832 158.366 88.0324C158.583 88.0707 158.762 88.1006 158.971 88.1773C159.146 88.2455 159.359 88.2839 159.576 88.3223C160.403 88.4672 160.595 88.0196 160.723 87.2991C160.736 87.2266 160.791 87.1243 160.898 87.1457C161.005 87.167 161.009 87.572 160.945 87.9343L160.851 88.4757C160.561 90.1298 159.807 92.7047 157.615 92.321C156.426 92.1121 155.672 90.9398 155.88 89.7504L155.876 89.7461ZM164.581 95.2881C164.215 97.3727 163.354 99.5213 161.819 101.069C160.284 102.616 157.969 103.541 155.774 103.158C155.701 103.145 155.522 103.115 155.539 103.004C155.544 102.97 156.106 102.731 156.737 102.51C157.611 102.181 158.558 101.013 159.252 99.3934C160.143 97.2875 160.706 94.9385 161.107 92.6706L163.017 81.8424C163.123 81.2285 163.255 80.6956 163.673 80.2139C164.087 79.7663 164.718 79.5446 165.366 79.6597C166.555 79.8686 167.054 81.0324 166.892 82.1536L164.577 95.2838L164.581 95.2881ZM168.226 93.5573C167.327 93.3996 166.704 92.5086 166.862 91.6091L166.952 91.106C167.071 90.4239 167.041 89.9721 166.692 89.8356C166.346 89.6992 166.248 89.6097 166.257 89.5713C166.282 89.4264 166.751 89.5116 166.93 89.5415C168.226 89.7717 170.447 90.4197 170.136 92.1846C169.978 93.0841 169.126 93.7108 168.226 93.553V93.5573ZM172.042 105.579C171.871 106.551 170.933 107.237 169.961 107.067C168.989 106.896 168.307 105.92 168.478 104.952L172.195 83.8716C172.494 82.1792 172.621 81.2371 171.927 80.9685C171.752 80.9003 171.722 80.8576 171.735 80.7852C171.752 80.6786 172.012 80.6871 172.229 80.7255L172.587 80.7894C173.593 80.9685 175.392 81.5056 175.823 82.435C176.006 82.8741 175.887 83.7437 175.806 84.2127L172.037 105.583L172.042 105.579ZM176.965 95.1005C175.994 94.93 175.456 93.9793 175.623 93.0457L175.712 92.5427C175.844 91.7881 175.78 91.5153 175.328 91.3618C175.154 91.2936 175.026 91.1956 175.03 91.1615C175.06 90.9824 175.495 91.0591 175.674 91.089C176.97 91.3192 179.191 91.9672 178.88 93.7321C178.722 94.6316 177.869 95.2582 176.97 95.1005H176.965ZM180.781 107.122C180.61 108.094 179.673 108.781 178.701 108.61C177.729 108.44 177.046 107.463 177.217 106.496L180.934 85.4148C181.211 83.8333 181.399 82.7888 180.738 82.5245C180.529 82.452 180.461 82.4009 180.474 82.3284C180.504 82.1493 181.263 82.2815 181.442 82.3156C182.375 82.4819 183.462 82.857 184.17 83.4624C184.848 84.0294 184.711 84.818 184.575 85.5726L180.777 107.122H180.781Z" fill="white"/>
<path d="M113.084 110.188C113.113 110.03 113.139 109.855 113.139 109.697C113.139 109.51 113.096 109.424 112.981 109.382C112.939 109.369 112.922 109.352 112.922 109.322C112.922 109.28 112.951 109.262 112.981 109.262C113.284 109.262 114.64 109.608 114.512 110.358L114.209 112.174H116.92C117.308 112.174 117.47 112.029 117.713 111.744C117.841 111.599 117.986 111.501 118.191 111.501C118.506 111.501 118.796 111.79 118.796 112.106C118.796 112.481 118.451 112.669 118.118 112.669H114.141C114.068 113.189 113.94 113.837 113.94 114.37C113.94 114.642 114.043 114.873 114.345 114.873C114.52 114.873 114.661 114.83 114.964 114.728C115.526 114.54 116.102 114.353 116.694 114.353C117.718 114.353 118.353 115.103 118.353 116.096C118.353 117.742 116.622 119.11 115.049 119.11C114.401 119.11 113.723 118.778 113.723 118.044C113.723 117.972 113.736 117.712 113.838 117.712C113.868 117.712 113.881 117.742 113.898 117.797C113.983 118.1 114.358 118.159 114.635 118.159C115.573 118.159 116.711 117.422 116.711 116.399C116.711 115.734 116.136 115.504 115.556 115.504C115.126 115.504 114.691 115.649 114.085 115.892C113.638 116.079 113.45 116.122 113.25 116.122C112.657 116.122 112.239 115.631 112.239 115.069C112.239 114.306 112.5 113.41 112.644 112.66H110.944C110.828 112.66 110.628 112.69 110.539 112.69C110.483 112.69 110.423 112.617 110.364 112.532C110.278 112.417 110.236 112.345 110.134 112.302C110.091 112.289 110.018 112.272 110.018 112.23C110.018 112.187 110.048 112.17 110.091 112.17H112.743L113.088 110.179L113.084 110.188Z" fill="white"/>
<path d="M130.302 117.699C129.769 118.275 129.079 118.709 128.269 118.709C126.58 118.709 126.035 116.808 126.035 115.435C126.035 114.485 126.235 113.547 126.627 112.669C126.367 112.741 126.124 112.771 125.864 112.771C125.186 112.771 124.509 112.426 124.509 111.663C124.509 111.39 124.611 111.16 124.781 110.985C124.956 110.81 125.144 110.712 125.212 110.695C125.242 110.695 125.255 110.708 125.255 110.725C125.255 110.755 125.242 110.767 125.225 110.784C125.152 110.857 125.11 110.942 125.11 111.044C125.11 111.449 125.57 111.535 125.873 111.535C126.261 111.535 126.653 111.492 127.041 111.475C127.373 110.985 127.804 110.507 128.439 110.507C128.801 110.507 129.232 110.695 129.232 111.113C129.232 111.863 127.847 112.293 127.271 112.468C127.113 113.018 127.011 113.594 127.011 114.169C127.011 115.325 127.442 117.098 128.887 117.098C130.575 117.098 131.108 114.877 131.108 113.551C131.108 113.146 131.078 112.728 131.078 112.328C131.078 112.055 131.091 112.012 131.15 112.012C131.193 112.012 131.21 112.055 131.223 112.127C131.338 112.69 132.075 112.805 132.536 112.878C133.111 112.98 133.806 113.167 133.806 113.888C133.806 114.391 133.359 114.711 132.885 114.711C132.412 114.711 132.05 114.421 131.777 114.046C131.649 115.414 131.257 116.684 130.306 117.708L130.302 117.699ZM128.328 111.296C128.516 111.223 128.661 111.079 128.661 110.908C128.661 110.836 128.576 110.793 128.516 110.793C128.171 110.793 127.91 111.181 127.736 111.441C127.923 111.411 128.141 111.368 128.328 111.296ZM132.468 111.343C132.208 111.343 131.948 111.155 131.948 110.882C131.948 110.767 131.977 110.61 131.977 110.537C131.977 110.435 131.948 110.32 131.82 110.29C131.76 110.277 131.747 110.26 131.747 110.234C131.747 110.149 132.02 110.149 132.093 110.149C132.523 110.149 133.013 110.264 133.013 110.784C133.013 111.087 132.783 111.347 132.463 111.347L132.468 111.343ZM134.152 111.343C133.892 111.343 133.619 111.155 133.619 110.882C133.619 110.797 133.649 110.622 133.649 110.55C133.649 110.435 133.619 110.32 133.504 110.29C133.461 110.277 133.418 110.26 133.418 110.234C133.418 110.149 133.708 110.149 133.764 110.149C134.241 110.149 134.702 110.264 134.702 110.784C134.702 111.087 134.459 111.347 134.152 111.347V111.343Z" fill="white"/>
<path d="M143.095 118.504C142.733 118.504 142.145 118.36 142.145 117.899C142.145 117.856 142.158 117.827 142.204 117.827C142.217 117.827 142.234 117.839 142.264 117.869C142.349 117.955 142.482 117.984 142.597 117.984C143.705 117.984 145.091 116.688 145.091 115.563C145.091 115 144.613 114.642 144.067 114.642C143.262 114.642 142.511 115.017 141.817 115.392C141.296 115.682 140.964 115.853 140.593 115.853C140.222 115.853 139.77 115.61 139.77 115.175C139.77 114.945 139.843 114.698 139.988 114.497C140.133 114.297 140.303 114.109 140.393 114.109C140.405 114.109 140.423 114.139 140.423 114.152C140.423 114.207 140.295 114.382 140.295 114.455C140.295 114.685 140.683 114.698 140.857 114.698C141.407 114.698 141.91 114.437 142.413 114.22C143.091 113.93 143.782 113.717 144.519 113.717C145.615 113.717 146.408 114.335 146.408 115.49C146.408 117.251 144.792 118.504 143.104 118.504H143.095Z" fill="white"/>
<path d="M154.094 116.288C154.094 116.748 154.41 117.094 154.874 117.094C155.424 117.094 156.072 116.804 156.545 116.544C156.835 116.369 157.151 116.211 157.496 116.211C158.072 116.211 158.549 116.761 158.549 117.319C158.549 118.458 157.006 118.603 156.183 118.603C154.857 118.603 153.024 118.155 153.024 116.527C153.024 115.444 153.689 114.438 154.422 113.713C153.732 112.92 153.34 111.897 152.952 110.929C152.879 110.729 152.722 110.294 152.449 110.294C152.436 110.294 152.419 110.294 152.376 110.307C152.346 110.32 152.334 110.32 152.317 110.32C152.287 110.32 152.261 110.29 152.261 110.26C152.261 110.145 153.127 109.97 153.531 109.97C154.197 109.97 154.452 110.285 154.712 110.848C155.002 111.513 155.288 112.191 155.693 112.779C156.183 112.536 156.733 112.302 157.292 112.302C157.667 112.302 157.927 112.532 157.927 112.92C157.927 113.798 157.061 114.651 156.183 114.651C155.735 114.651 155.318 114.45 154.96 114.19C154.499 114.766 154.094 115.516 154.094 116.267V116.288ZM156.861 113.837C157.108 113.837 157.236 113.589 157.236 113.376C157.236 113.146 157.078 112.916 156.831 112.916C156.541 112.916 156.256 113.103 156.025 113.248C156.226 113.491 156.516 113.841 156.861 113.841V113.837Z" fill="white"/>
</svg>
