<svg width="140" height="132" viewBox="0 0 140 132" fill="none" xmlns="http://www.w3.org/2000/svg">
<g clip-path="url(#clip0_4_202)">
<path d="M55.0483 39.8697C55.4669 39.8697 55.6882 39.4484 55.6882 39.0804C55.6882 38.6834 55.4188 38.2912 55.0002 38.2912C54.5094 38.2912 54.0186 38.6108 53.6241 38.8577C53.9657 39.279 54.4565 39.8697 55.0483 39.8697Z" fill="white"/>
<path d="M27.2379 34.6596C27.2379 34.5386 27.1176 34.4611 26.9925 34.4611C26.4055 34.4611 25.9628 35.1293 25.6693 35.5748C26.112 35.5264 27.2379 35.3036 27.2379 34.6596Z" fill="white"/>
<path d="M71.2294 40.8091C71.2294 41.1819 72.0618 41.303 72.336 41.303C72.8027 41.303 73.2935 41.1771 73.7121 40.9834C73.1492 40.7122 72.4852 40.5379 71.8452 40.5379C71.672 40.5379 71.2342 40.5379 71.2342 40.8091H71.2294Z" fill="white"/>
<path d="M126.282 14.7346C126.032 14.2068 125.301 14.1923 125.012 14.7007C121.971 19.9882 116.13 23.4406 109.529 23C101.311 22.4529 94.6566 15.7466 94.1177 7.4763C93.9685 5.18115 94.2813 2.97801 94.9693 0.954016C95.1377 0.455282 94.7383 -0.0482947 94.2139 0.00496819C77.085 1.71907 67.7411 14.1777 52.2673 18.3661C48.3074 19.4072 44.0926 19.7607 39.7478 19.5718C33.82 19.3442 27.5555 18.1289 21.6229 18.6228C7.30872 19.4072 -2.80503 32.8004 0.697732 46.8957C3.28631 56.8801 12.6976 63.32 22.2099 65.8815C30.1922 68.1185 38.4728 67.5665 46.6523 66.6175C53.1911 65.6394 61.1397 63.4701 63.2038 71.3676C64.4211 76.2339 65.8838 74.9507 68.6168 71.8905C72.8076 66.6417 76.1997 65.1697 82.6952 65.0196C99.2852 63.9204 114.942 60.0032 123.785 44.5182C129.737 33.6235 130.175 22.9371 126.282 14.7297V14.7346ZM34.4311 41.1578C33.6228 41.1578 33.031 40.6639 32.5642 40.0732C32.391 43.1867 30.2307 48.0287 26.5739 48.0287C23.7015 48.0287 22.768 44.7942 22.768 42.4216C22.768 40.7898 23.1385 39.1871 23.7496 37.7054C23.331 37.8023 22.8883 37.8555 22.4745 37.8555C21.3198 37.8555 20.1698 37.2648 20.1698 35.9526C20.1698 34.8922 21.1754 34.2966 21.3727 34.2966C21.3968 34.2966 21.4449 34.3208 21.4449 34.3692C21.4449 34.3934 21.4208 34.4419 21.3727 34.4903C21.2236 34.6404 21.1995 34.713 21.1995 34.8873C21.1995 35.5797 21.9838 35.725 22.5227 35.725C23.1866 35.725 23.8458 35.6524 24.4857 35.6282C25.0728 34.7614 25.7849 33.9722 26.8915 33.9722C27.5026 33.9722 28.2147 34.316 28.2147 35.0084C28.2147 36.2673 25.857 37.0324 24.8995 37.3035C24.606 38.2671 24.4328 39.2549 24.4328 40.2669C24.4328 42.2182 25.169 45.2542 27.6228 45.2542C30.5194 45.2542 31.4287 41.4241 31.4287 39.129C31.4287 38.4366 31.3566 37.7684 31.3566 37.0808C31.3566 36.7854 31.3566 36.5385 31.4768 36.5385C31.525 36.5385 31.6019 36.6595 31.6501 36.7854C31.9195 37.5505 32.3862 37.7974 34.128 38.0928C35.0374 38.2429 35.9948 38.6593 35.9948 39.7488C35.9948 40.6155 35.2346 41.1578 34.4263 41.1578H34.4311ZM53.8984 48.0481C51.6418 48.0481 48.524 47.2831 48.524 44.4892C48.524 42.6347 49.6547 40.906 50.9057 39.6713C49.7268 38.3107 49.0628 36.5578 48.4037 34.9019C48.2786 34.5581 48.0091 33.8172 47.5424 33.8172C47.5184 33.8172 47.4943 33.8172 47.4221 33.8414C47.374 33.8656 47.35 33.8656 47.3259 33.8656C47.2778 33.8656 47.2297 33.8172 47.2297 33.7688C47.2297 33.5703 48.702 33.2749 49.39 33.2749C50.5207 33.2749 50.9586 33.8172 51.4012 34.7808C51.892 35.9187 52.3828 37.0759 53.0708 38.0928C53.9032 37.6715 54.8366 37.2793 55.7941 37.2793C56.4341 37.2793 56.8719 37.6764 56.8719 38.3397C56.8719 39.8456 55.3996 41.3031 53.9032 41.3031C53.143 41.3031 52.4309 40.9593 51.815 40.5138C51.0308 41.5016 50.3427 42.7848 50.3427 44.0728C50.3427 44.862 50.8816 45.4576 51.6659 45.4576C52.5993 45.4576 53.7011 44.9637 54.5143 44.5182C55.005 44.2229 55.5439 43.9517 56.1357 43.9517C57.1173 43.9517 57.9256 44.8911 57.9256 45.8546C57.9256 47.806 55.2985 48.0529 53.8984 48.0529V48.0481ZM79.4474 48.2951C78.1483 48.2951 77.6816 47.2346 77.3592 46.1694C76.9647 44.7603 76.4499 43.1043 75.2999 42.1166C74.5156 42.5136 73.6544 42.7848 72.7739 42.7848C71.7923 42.7848 70.2238 42.3151 70.2238 41.0803C70.2238 40.2427 71.2294 39.9957 71.8934 39.9957C72.7787 39.9957 73.6592 40.17 74.4964 40.4896C76.3392 38.9353 77.9077 35.8945 77.9077 33.4734C77.9077 33.2507 77.9078 32.9311 77.6864 32.8052C77.6624 32.781 77.6383 32.781 77.6383 32.7326C77.6383 32.6842 77.6864 32.6358 77.7345 32.6358C78.1772 32.6358 80.1162 33.6478 80.1162 35.6717C80.1162 37.87 78.1531 40.0926 76.5076 41.3515C78.2494 42.3151 81.0256 44.5376 81.0256 46.7359C81.0256 47.6511 80.3616 48.2902 79.4571 48.2902L79.4474 48.2951ZM107.479 37.87H100.705C100.584 38.761 100.363 39.8698 100.363 40.785C100.363 41.2547 100.536 41.6517 101.051 41.6517C101.345 41.6517 101.59 41.5791 102.105 41.4048C103.062 41.0852 104.044 40.7608 105.049 40.7608C106.791 40.7608 107.874 42.0439 107.874 43.7483C107.874 46.5616 104.929 48.91 102.254 48.91C101.147 48.91 99.9973 48.3435 99.9973 47.0845C99.9973 46.9635 100.021 46.518 100.195 46.518C100.243 46.518 100.267 46.5664 100.291 46.6681C100.44 47.1862 101.075 47.2879 101.542 47.2879C103.139 47.2879 105.078 46.029 105.078 44.2761C105.078 43.1382 104.097 42.746 103.115 42.746C102.379 42.746 101.643 42.993 100.613 43.4142C99.853 43.7338 99.5354 43.8113 99.189 43.8113C98.1834 43.8113 97.4713 42.9736 97.4713 42.01C97.4713 40.7027 97.9139 39.1677 98.1593 37.8846H95.2628C95.0655 37.8846 94.7239 37.933 94.5748 37.933C94.4785 37.933 94.3775 37.8119 94.2813 37.6618C94.1321 37.4633 94.0599 37.3423 93.8867 37.2648C93.8145 37.2406 93.6894 37.2164 93.6894 37.1389C93.6894 37.0614 93.7376 37.0421 93.8097 37.0421H98.3277L98.9147 33.6332C98.9628 33.3621 99.011 33.0667 99.011 32.7955C99.011 32.476 98.9388 32.3259 98.7415 32.2532C98.6693 32.229 98.6453 32.2048 98.6453 32.1564C98.6453 32.0838 98.6934 32.0596 98.7415 32.0596C99.2563 32.0596 101.566 32.6503 101.345 33.9383L100.83 37.0517H105.444C106.108 37.0517 106.377 36.8048 106.796 36.3109C107.017 36.064 107.263 35.8896 107.604 35.8896C108.143 35.8896 108.634 36.3835 108.634 36.9258C108.634 37.5698 108.047 37.8894 107.479 37.8894V37.87Z" fill="white"/>
<path d="M2.16515 86.9638C2.16515 85.2933 2.1026 84.6106 1.98231 84.1796C1.91977 83.9327 1.61183 83.5598 1.42899 83.4969C0.630285 83.2499 0.447449 83.124 0.447449 83.003C0.447449 82.756 1.18361 82.756 1.79948 82.756C3.58454 82.756 7.02476 83.0659 8.1314 84.4895C8.55962 85.0463 8.55962 86.0971 8.55962 86.8428V118.52C8.55962 120.253 7.14505 121.735 5.36479 121.735C3.39689 121.735 2.16996 120.248 2.16996 118.457V86.9638H2.16515ZM21.9019 107.751C18.2115 107.751 15.7528 105.524 14.1554 103.049C13.2316 101.626 12.558 100.139 12.558 99.6452C12.558 99.4612 12.6831 99.3983 12.8034 99.3983C12.8659 99.3983 12.9862 99.5242 13.1113 99.7082C13.7272 100.575 14.8964 100.638 15.57 100.638C16.3061 100.638 18.6445 100.265 21.3486 99.8341C21.9644 99.7082 22.3301 99.6501 22.8834 99.6501C24.9716 99.6501 26.6941 101.321 26.6941 103.485C26.6941 106.269 24.4183 107.756 21.8971 107.756L21.9019 107.751Z" fill="white"/>
<path d="M34.5657 102.55C34.5657 101.621 34.5657 99.5193 34.1952 98.5897C34.0124 98.1587 33.8247 98.0958 33.0886 97.8488C32.9057 97.7859 32.8432 97.7229 32.8432 97.6648C32.8432 97.4808 33.334 97.3549 34.6283 97.3549C36.4133 97.3549 39.1174 97.4808 40.2866 99.0254C40.8399 99.7663 40.965 100.633 40.965 101.936V112.515C40.965 114.249 39.5504 115.731 37.7702 115.731C35.9899 115.731 34.5753 114.307 34.5753 112.515V102.555L34.5657 102.55ZM60.567 106.884C60.567 111.649 60.2591 117.711 59.6432 120.311C58.3537 125.633 53.5567 131.511 47.8984 131.511C46.2384 131.511 45.3146 130.828 45.3146 130.334C45.3146 130.213 45.4397 130.15 45.56 130.15C45.6225 130.15 46.0507 130.334 46.1133 130.334C48.3266 130.334 51.1557 126.311 52.1998 123.778C54.0426 119.261 54.1052 113.881 54.1052 107.693V105.402C54.1052 103.858 54.1052 100.575 53.8598 99.0303C53.7347 98.2894 53.4316 97.9795 52.936 97.9166C52.4452 97.8537 52.3827 97.7907 52.3827 97.6697C52.3827 97.4857 52.6906 97.3598 53.8598 97.3598C55.5823 97.3598 57.4877 97.4857 59.0225 98.2265C60.312 98.8463 60.5574 99.96 60.5574 101.442V106.884H60.567Z" fill="white"/>
<path d="M75.0159 99.7905C75.0159 104.676 75.141 107.46 75.9975 110.554C77.0416 114.326 80.2412 115.382 83.9894 115.382H86.8811C88.9693 115.382 90.7543 116.806 90.7543 119.033C90.7543 122.437 86.6982 122.868 84.177 122.868C78.3984 122.868 73.6639 120.268 71.3881 114.888C70.2189 112.104 69.8532 107.092 69.8532 103.069V90.8181C69.8532 88.4648 69.425 87.9709 68.9919 87.8499C68.8091 87.7869 68.5637 87.724 68.5637 87.54C68.5637 87.356 68.8717 87.2931 69.6704 87.2931C72.129 87.2931 75.0207 88.0969 75.0207 90.944V99.7905H75.0159Z" fill="white"/>
<path d="M107.662 101.253C107.291 101.253 106.43 101.379 105.939 101.379C105.819 101.379 105.631 101.195 105.386 100.885C104.65 100.018 104.525 99.8341 103.972 99.6452C103.789 99.5823 103.726 99.5193 103.726 99.3983C103.726 99.2143 103.909 99.1513 104.034 99.1513H127.091C128.626 99.1513 129.92 98.4686 131.084 97.4179C132.374 96.2412 133.423 95.3745 135.265 95.3745C138.46 95.3745 140 97.7859 140 100.759C140 105.645 137.233 109.794 133.485 112.269C130.781 114.065 127.524 115.3 124.324 115.3C123.833 115.3 122.236 115.174 122.236 114.559C122.236 114.433 122.361 114.375 122.481 114.375H123.097C125.493 114.375 128.751 110.971 129.862 108.681C131.031 106.269 131.339 103.795 131.522 101.258H107.667L107.662 101.253ZM116.698 109.111C120.201 109.111 120.326 112.946 120.326 115.61C120.326 118.704 119.647 121.982 118.295 124.766C116.453 128.48 112.517 132.005 108.336 132.005C107.474 132.005 106.122 131.632 106.122 131.017C106.122 130.891 106.247 130.77 106.368 130.77C106.488 130.77 106.676 131.017 106.921 131.017C107.965 131.017 109.072 129.84 109.688 129.1C111.222 127.182 112.146 124.892 112.7 122.543C113.19 120.5 113.436 118.399 113.436 116.292C113.436 115.053 113.315 113.755 113.315 112.457C113.315 110.54 114.793 109.116 116.698 109.116V109.111Z" fill="white"/>
<path d="M94.6805 97.6793C97.1873 95.8878 97.6444 92.2756 95.537 89.9029C93.954 88.1162 91.2932 87.6514 89.205 88.7893C87.8722 89.5156 87.0062 90.7019 86.6501 92.0238C86.1497 93.8735 85.2356 95.5827 84.1289 97.1419L83.5227 97.9941C82.9405 98.8172 83.7151 99.9115 84.6774 99.6307L86.0246 99.2336C87.7953 98.7155 89.6429 98.5703 91.4857 98.6381C92.5875 98.6768 93.7086 98.3718 94.6805 97.6793Z" fill="#FCEE21"/>
<path d="M83.0424 99.845L82.7889 99.4857C82.5812 99.1914 82.1757 99.1222 81.8832 99.3312L81.8793 99.334C81.5868 99.5431 81.518 99.9511 81.7257 100.245L81.9793 100.605C82.187 100.899 82.5925 100.968 82.8849 100.759L82.8889 100.756C83.1814 100.547 83.2501 100.139 83.0424 99.845Z" fill="white"/>
<path d="M81.3709 100.774L81.3682 100.77C81.1604 100.475 80.755 100.406 80.4625 100.615L80.4585 100.618C80.1661 100.827 80.0973 101.235 80.305 101.529L80.3078 101.533C80.5155 101.828 80.921 101.897 81.2135 101.688L81.2174 101.685C81.5099 101.476 81.5786 101.068 81.3709 100.774Z" fill="white"/>
<path d="M97.6829 87.7289C97.4856 87.603 97.3894 87.3609 97.4471 87.1284L98.4335 82.9449C98.549 82.451 99.1071 82.2186 99.5257 82.4897L101.556 83.8068C101.975 84.0779 102.004 84.6929 101.614 85.0076L98.318 87.6901C98.1352 87.8402 97.8802 87.8548 97.6829 87.724V87.7289Z" fill="white"/>
<path d="M99.059 89.84C99.0253 89.6027 99.1456 89.3703 99.3525 89.2638L103.096 87.3221C103.539 87.0945 104.068 87.3802 104.135 87.8838L104.462 90.329C104.53 90.8326 104.092 91.2539 103.606 91.1522L99.4872 90.3145C99.2563 90.2661 99.0831 90.0773 99.0494 89.84H99.059Z" fill="white"/>
</g>
<defs>
<clipPath id="clip0_4_202">
<rect width="140" height="132" fill="white"/>
</clipPath>
</defs>
</svg>
