<svg width="194" height="142" viewBox="0 0 194 142" fill="none" xmlns="http://www.w3.org/2000/svg">
<path d="M2.38714 79.578C2.38714 77.2711 2.30021 76.3283 2.13304 75.7332C2.04612 75.3922 1.61817 74.8773 1.36408 74.7904C0.254093 74.4494 0 74.2755 0 74.1083C0 73.7673 1.02306 73.7673 1.87895 73.7673C4.3597 73.7673 9.14066 74.1953 10.6786 76.1612C11.2737 76.9301 11.2737 78.3811 11.2737 79.4109V123.155C11.2737 125.549 9.30783 127.595 6.83377 127.595C4.09892 127.595 2.39382 125.542 2.39382 123.068V79.578H2.38714ZM29.8091 108.284C24.6805 108.284 21.2636 105.208 19.0436 101.791C17.7598 99.8253 16.8236 97.7724 16.8236 97.0904C16.8236 96.8363 16.9975 96.7494 17.1647 96.7494C17.2516 96.7494 17.4187 96.9232 17.5926 97.1773C18.4485 98.3742 20.0734 98.4612 21.0095 98.4612C22.0325 98.4612 25.2823 97.9463 29.0402 97.3512C29.8961 97.1773 30.4042 97.0971 31.1732 97.0971C34.0752 97.0971 36.469 99.404 36.469 102.393C36.469 106.238 33.3063 108.291 29.8024 108.291L29.8091 108.284Z" fill="#FF4800"/>
<path d="M47.4084 101.103C47.4084 99.8187 47.4083 96.9167 46.8935 95.6328C46.6394 95.0377 46.3786 94.9508 45.3555 94.6098C45.1014 94.5228 45.0145 94.4359 45.0145 94.3557C45.0145 94.1016 45.6966 93.9277 47.4953 93.9277C49.976 93.9277 53.7339 94.1016 55.3588 96.2346C56.1278 97.2577 56.3016 98.4546 56.3016 100.253V114.864C56.3016 117.257 54.3357 119.304 51.8617 119.304C49.3876 119.304 47.4217 117.338 47.4217 114.864V101.109L47.4084 101.103ZM83.5497 107.08C83.5497 113.66 83.1218 122.032 82.2659 125.623C80.4739 132.971 73.8073 141.089 65.9438 141.089C63.6369 141.089 62.353 140.146 62.353 139.464C62.353 139.297 62.5269 139.21 62.6941 139.21C62.781 139.21 63.3761 139.464 63.463 139.464C66.5389 139.464 70.4706 133.907 71.9216 130.41C74.4826 124.171 74.5696 116.743 74.5696 108.197V105.034C74.5696 102.901 74.5696 98.3677 74.2285 96.2346C74.0547 95.2116 73.6334 94.7836 72.9447 94.6967C72.2627 94.6098 72.1757 94.5228 72.1757 94.3557C72.1757 94.1016 72.6037 93.9277 74.2285 93.9277C76.6224 93.9277 79.2703 94.1016 81.4033 95.1247C83.1954 95.9805 83.5364 97.5185 83.5364 99.5646V107.08H83.5497Z" fill="#FF4800"/>
<path d="M103.63 97.2912C103.63 104.038 103.804 107.883 104.994 112.156C106.445 117.365 110.891 118.822 116.1 118.822H120.119C123.021 118.822 125.502 120.788 125.502 123.864C125.502 128.565 119.865 129.16 116.361 129.16C108.33 129.16 101.751 125.569 98.588 118.14C96.9632 114.295 96.455 107.375 96.455 101.818V84.9009C96.455 81.6511 95.8599 80.9691 95.2581 80.8019C95.004 80.715 94.663 80.6281 94.663 80.374C94.663 80.1199 95.0909 80.033 96.2009 80.033C99.6178 80.033 103.636 81.1429 103.636 85.0747V97.2912H103.63Z" fill="#FF4800"/>
<path d="M148.999 99.3105C148.484 99.3105 147.287 99.4843 146.605 99.4843C146.438 99.4843 146.177 99.2302 145.836 98.8023C144.813 97.6054 144.639 97.3513 143.87 97.0905C143.616 97.0036 143.529 96.9167 143.529 96.7495C143.529 96.4954 143.783 96.4085 143.957 96.4085H176C178.133 96.4085 179.931 95.4656 181.549 94.0146C183.341 92.3898 184.799 91.1929 187.36 91.1929C191.8 91.1929 193.94 94.5228 193.94 98.6284C193.94 105.375 190.095 111.106 184.886 114.523C181.128 117.003 176.601 118.708 172.155 118.708C171.473 118.708 169.253 118.535 169.253 117.685C169.253 117.512 169.427 117.431 169.594 117.431H170.45C173.78 117.431 178.306 112.731 179.851 109.568C181.476 106.238 181.904 102.821 182.158 99.3172H149.005L148.999 99.3105ZM161.556 110.156C166.424 110.156 166.598 115.452 166.598 119.13C166.598 123.403 165.655 127.929 163.776 131.774C161.215 136.903 155.746 141.771 149.935 141.771C148.738 141.771 146.859 141.256 146.859 140.407C146.859 140.233 147.033 140.066 147.2 140.066C147.367 140.066 147.628 140.407 147.969 140.407C149.42 140.407 150.958 138.782 151.814 137.759C153.947 135.111 155.231 131.948 156 128.705C156.682 125.883 157.023 122.981 157.023 120.073C157.023 118.361 156.856 116.569 156.856 114.777C156.856 112.129 158.908 110.163 161.556 110.163V110.156Z" fill="#FF4800"/>
<path d="M130.958 96.3819C134.442 93.9078 135.077 88.9196 132.148 85.6431C129.949 83.1757 126.251 82.5338 123.349 84.1052C121.497 85.1082 120.293 86.7464 119.798 88.5719C119.103 91.1262 117.832 93.4866 116.294 95.6397L115.452 96.8165C114.643 97.9532 115.719 99.4644 117.057 99.0766L118.929 98.5283C121.39 97.8128 123.957 97.6122 126.518 97.7058C128.05 97.7593 129.607 97.3381 130.958 96.3819Z" fill="#FCEE21"/>
<path d="M114.786 99.3696L114.433 98.8734C114.145 98.467 113.581 98.3715 113.175 98.6601L113.169 98.664C112.763 98.9526 112.667 99.5162 112.956 99.9226L113.308 100.419C113.597 100.825 114.16 100.921 114.567 100.632L114.572 100.628C114.979 100.34 115.074 99.776 114.786 99.3696Z" fill="#FF4800"/>
<path d="M112.457 100.649L112.454 100.643C112.165 100.237 111.601 100.141 111.195 100.43L111.189 100.434C110.783 100.723 110.687 101.286 110.976 101.693L110.98 101.698C111.269 102.105 111.832 102.2 112.239 101.911L112.244 101.908C112.651 101.619 112.746 101.055 112.457 100.649Z" fill="#FF4800"/>
<path d="M135.96 84.1654C135.706 83.9648 135.612 83.6171 135.719 83.3028L137.678 77.6994C137.912 77.0374 138.715 76.7967 139.25 77.2313L141.871 79.3309C142.412 79.7656 142.366 80.6081 141.784 80.9892L136.849 84.2055C136.575 84.3861 136.221 84.366 135.966 84.1654H135.96Z" fill="#FF4800"/>
<path d="M137.565 87.2613C137.551 86.9336 137.752 86.6327 138.053 86.5124L143.509 84.3793C144.151 84.1252 144.846 84.5933 144.866 85.2954L144.973 88.7056C144.993 89.4077 144.331 89.9225 143.676 89.7153L138.106 87.9767C137.799 87.8831 137.585 87.5956 137.571 87.2613H137.565Z" fill="#FF4800"/>
<path d="M20.4477 44.2525C20.0666 42.1061 21.8319 40.869 23.7509 40.528C26.118 40.1135 28.8328 38.9901 29.2942 36.6431C29.3209 36.4625 29.3343 36.2285 29.448 36.2084C29.7288 36.1616 30.1434 37.1914 30.2972 38.0339C30.9859 41.9255 28.0237 45.9375 24.1856 46.6196C22.4337 46.9272 20.762 46.0044 20.4544 44.2525H20.4477ZM21.4373 28.4252C21.0963 28.4853 20.3875 28.7261 20.0465 28.7862C19.8192 28.8264 19.3244 28.3316 19.1171 28.1376C18.9098 27.9437 18.7761 27.8501 18.4752 27.7832C18.1743 27.7231 17.9268 27.6495 17.9001 27.4757C17.8734 27.3018 18.0271 27.2216 18.1408 27.2015L30.2704 25.0618L28.4583 14.7911C28.1508 13.0392 27.8967 12.2702 26.8535 12.2836C26.4457 12.2969 26.3855 12.2501 26.3654 12.1365C26.3186 11.8556 26.4256 11.8356 27.3283 11.6751C28.3982 11.4879 29.9227 11.2204 31.2801 11.3274C33.2861 11.4945 34.0952 12.4574 34.4095 14.2093L40.3873 48.1241C40.6682 49.7021 39.605 51.2869 37.9735 51.5744C36.2817 51.8753 34.7973 50.7386 34.5231 49.1605L30.5847 26.8137L21.444 28.4252H21.4373ZM58.0267 37.2783C58 37.1111 58.0669 36.8637 58.2942 36.8236C58.5216 36.7835 58.682 37.0443 58.7823 37.6126C58.9428 38.5153 59.4911 39.0035 61.2029 39.4582C63.3961 39.9998 64.9942 40.8289 65.3353 42.748C65.703 44.8342 64.3523 46.4123 62.3798 46.76L52.6172 48.4785C50.3037 48.8864 48.0369 47.2481 47.629 44.9345L41.7715 11.6951C41.5642 10.5116 41.3101 9.74264 40.7618 9.60222C40.6414 9.56878 40.5144 9.52867 40.5077 9.47517C40.4676 9.24783 40.6347 9.22108 41.2566 9.10741C43.1222 8.77976 45.3488 9.20102 45.7367 11.4009L50.8988 40.6885C51.0191 41.3639 51.748 41.8787 52.4835 41.745L58.6352 40.6618L58.0401 37.2783H58.0267ZM53.2859 24.5603C52.3832 24.7208 52.089 24.7141 52.0622 24.5402C52.0355 24.3664 52.0756 24.3062 52.303 24.2661C53.3728 24.0788 53.9947 23.6175 53.8008 22.5476C53.7205 22.0996 53.2391 20.6686 53.1789 20.3276C52.858 18.5222 54.1685 16.7168 55.9806 16.4026C57.786 16.0816 59.6382 17.332 59.9659 19.1909C60.5944 22.7482 56.0007 24.0788 53.2926 24.5603H53.2859Z" fill="white"/>
<path d="M84.0312 36.2684C81.8514 38.1006 78.9293 40.0531 75.9537 40.0531C75.8401 40.0531 75.6662 40.0531 75.6662 39.8792C75.6662 39.7656 76.6425 39.137 77.271 38.6155C80.0192 36.3821 81.5103 34.3761 83.1753 31.0529C86.2712 25.0349 87.4748 18.3883 87.7022 11.6883H84.0379C83.6367 11.6883 82.948 11.8621 82.607 11.8621C82.4331 11.8621 82.2058 11.5746 82.0319 11.3473C81.7444 10.9461 81.517 10.4847 81.0022 10.371C80.8283 10.371 80.7748 10.3108 80.7748 10.1437C80.7748 10.03 80.8885 9.96981 81.0022 9.96981H87.8226C87.8827 8.30483 87.9964 3.77796 88.1636 2.46069C88.3374 1.02975 89.6547 0 91.1993 0C94.4089 0 94.4089 4.18585 94.4089 7.04774C94.4089 8.02399 94.4089 8.99356 94.3487 9.96981H98.6482C99.678 9.96981 100.48 9.45494 101.229 8.76621C101.804 8.19116 102.433 7.78996 103.289 7.78996C104.78 7.78996 105.984 9.05374 105.984 10.5382V33.9147C105.984 34.657 106.612 35.2922 107.361 35.2922H110.858V29.2742C110.858 29.1605 110.918 29.0469 111.032 29.0469C111.206 29.0469 111.259 29.2742 111.259 29.4481C111.259 31.7951 112.69 32.3701 114.984 33.2327C117.05 34.0351 119.049 35.466 119.049 37.9869C119.049 40.5078 116.99 42.2864 114.583 42.2864H105.99C103.643 42.2864 101.691 40.2804 101.691 37.9334V11.6816H94.2417C93.553 19.5919 90.3434 31.0462 84.0446 36.2618L84.0312 36.2684Z" fill="white"/>
<path d="M130.838 26.038C131.159 24.2326 132.937 23.0357 134.743 23.35C135.084 23.4101 135.365 23.4569 135.692 23.5773C135.967 23.6843 136.301 23.7445 136.642 23.8046C137.939 24.032 138.24 23.3299 138.441 22.1998C138.461 22.0862 138.548 21.9257 138.715 21.9591C138.882 21.9926 138.889 22.6278 138.788 23.1962L138.641 24.0454C138.186 26.6398 137.003 30.6785 133.566 30.0767C131.7 29.7491 130.517 27.9103 130.845 26.0447L130.838 26.038ZM144.492 34.7306C143.917 38.0004 142.566 41.3705 140.159 43.7978C137.752 46.225 134.121 47.676 130.677 47.0742C130.564 47.0542 130.283 47.0074 130.31 46.8335C130.316 46.78 131.199 46.4056 132.189 46.0578C133.559 45.543 135.044 43.7108 136.134 41.1699C137.531 37.8667 138.414 34.1823 139.042 30.625L142.038 13.6409C142.205 12.678 142.412 11.8422 143.068 11.0866C143.716 10.3845 144.706 10.0368 145.722 10.2173C147.588 10.545 148.37 12.3705 148.116 14.129L144.485 34.724L144.492 34.7306ZM150.209 32.0159C148.798 31.7685 147.822 30.3709 148.069 28.9601L148.21 28.171C148.397 27.1012 148.35 26.3924 147.802 26.1784C147.26 25.9644 147.106 25.824 147.12 25.7638C147.16 25.5365 147.896 25.6702 148.176 25.717C150.209 26.0781 153.693 27.0945 153.205 29.8628C152.957 31.2736 151.62 32.2566 150.209 32.0092V32.0159ZM156.194 50.8722C155.926 52.3968 154.455 53.4734 152.931 53.2059C151.406 52.9384 150.336 51.4072 150.604 49.8893L156.434 16.8238C156.902 14.1692 157.103 12.6914 156.013 12.2702C155.739 12.1632 155.692 12.0963 155.712 11.9826C155.739 11.8155 156.147 11.8288 156.488 11.889L157.05 11.9893C158.628 12.2702 161.449 13.1127 162.125 14.5704C162.412 15.2591 162.225 16.6232 162.098 17.3587L156.187 50.8789L156.194 50.8722ZM163.917 34.4364C162.392 34.169 161.55 32.6778 161.81 31.2135L161.951 30.4244C162.158 29.2409 162.058 28.813 161.349 28.5722C161.075 28.4652 160.874 28.3115 160.881 28.258C160.928 27.9771 161.61 28.0975 161.891 28.1443C163.923 28.5054 167.407 29.5217 166.919 32.29C166.672 33.7009 165.334 34.6838 163.923 34.4364H163.917ZM169.901 53.2928C169.634 54.8174 168.163 55.8939 166.638 55.6265C165.114 55.359 164.044 53.8277 164.311 52.3099L170.142 19.2443C170.577 16.7636 170.871 15.1254 169.834 14.7108C169.507 14.5971 169.4 14.5169 169.42 14.4032C169.467 14.1224 170.657 14.3296 170.938 14.3831C172.402 14.6439 174.107 15.2323 175.217 16.1819C176.28 17.0712 176.066 18.3082 175.852 19.4917L169.895 53.2928H169.901Z" fill="white"/>
<path d="M63.7171 58.1007C63.7639 57.8533 63.8041 57.5791 63.8041 57.3317C63.8041 57.0375 63.7372 56.9038 63.5567 56.8369C63.4898 56.8168 63.463 56.7901 63.463 56.7433C63.463 56.6764 63.5098 56.6497 63.5567 56.6497C64.0314 56.6497 66.1578 57.1913 65.9572 58.3681L65.4824 61.2166H69.7351C70.3436 61.2166 70.5977 60.9893 70.9788 60.5413C71.1794 60.3139 71.4068 60.1602 71.7277 60.1602C72.2226 60.1602 72.6773 60.6148 72.6773 61.1097C72.6773 61.6981 72.1356 61.9923 71.6141 61.9923H65.3754C65.2617 62.8081 65.0611 63.8244 65.0611 64.6603C65.0611 65.0882 65.2216 65.4493 65.6964 65.4493C65.9705 65.4493 66.1912 65.3824 66.6659 65.222C67.5486 64.9277 68.4513 64.6335 69.3807 64.6335C70.9855 64.6335 71.9818 65.8104 71.9818 67.3684C71.9818 69.9494 69.2671 72.0958 66.7997 72.0958C65.7833 72.0958 64.7201 71.5743 64.7201 70.4242C64.7201 70.3105 64.7402 69.9026 64.9007 69.9026C64.9475 69.9026 64.9675 69.9494 64.9943 70.0363C65.128 70.5111 65.7164 70.6047 66.1511 70.6047C67.6221 70.6047 69.4075 69.4479 69.4075 67.8431C69.4075 66.8 68.5048 66.4389 67.5954 66.4389C66.92 66.4389 66.238 66.6663 65.2885 67.0474C64.5864 67.3416 64.2922 67.4085 63.9779 67.4085C63.0485 67.4085 62.3932 66.6395 62.3932 65.7569C62.3932 64.56 62.8011 63.1558 63.0284 61.9789H60.3604C60.1799 61.9789 59.8656 62.0257 59.7252 62.0257C59.6383 62.0257 59.5447 61.9121 59.451 61.7783C59.3173 61.5978 59.2504 61.4841 59.09 61.4172C59.0231 61.3972 58.9094 61.3704 58.9094 61.3036C58.9094 61.2367 58.9562 61.21 59.0231 61.21H63.1822L63.7238 58.0873L63.7171 58.1007Z" fill="white"/>
<path d="M90.7245 69.8826C89.8887 70.7853 88.8054 71.4673 87.535 71.4673C84.887 71.4673 84.0312 68.4851 84.0312 66.332C84.0312 64.8409 84.3454 63.3698 84.9606 61.9923C84.5527 62.106 84.1716 62.1528 83.7637 62.1528C82.7005 62.1528 81.6373 61.6112 81.6373 60.4143C81.6373 59.9863 81.7978 59.6253 82.0653 59.3511C82.3394 59.077 82.6336 58.9232 82.7406 58.8964C82.7874 58.8964 82.8075 58.9165 82.8075 58.9432C82.8075 58.99 82.7874 59.0101 82.7607 59.0368C82.647 59.1505 82.5802 59.2843 82.5802 59.4447C82.5802 60.08 83.3023 60.2137 83.7771 60.2137C84.3855 60.2137 85.0007 60.1468 85.6092 60.1201C86.1308 59.3511 86.8061 58.6022 87.8024 58.6022C88.3708 58.6022 89.0461 58.8964 89.0461 59.5517C89.0461 60.7286 86.873 61.4039 85.9703 61.6781C85.7229 62.5407 85.5624 63.4433 85.5624 64.346C85.5624 66.1581 86.2377 68.9398 88.5045 68.9398C91.1524 68.9398 91.9883 65.456 91.9883 63.3765C91.9883 62.7413 91.9415 62.086 91.9415 61.4574C91.9415 61.0295 91.9615 60.9626 92.0551 60.9626C92.122 60.9626 92.1488 61.0295 92.1688 61.1431C92.3494 62.0258 93.5061 62.2063 94.2283 62.32C95.131 62.4805 96.2209 62.7747 96.2209 63.9047C96.2209 64.6938 95.5188 65.1953 94.7766 65.1953C94.0344 65.1953 93.466 64.7406 93.0381 64.1521C92.8375 66.2986 92.2223 68.2912 90.7312 69.896L90.7245 69.8826ZM87.6286 59.8392C87.9228 59.7256 88.1501 59.4982 88.1501 59.2308C88.1501 59.1171 88.0164 59.0502 87.9228 59.0502C87.3812 59.0502 86.9733 59.6587 86.6991 60.0666C86.9933 60.0198 87.3344 59.9529 87.6286 59.8392ZM94.1213 59.9128C93.7134 59.9128 93.3056 59.6186 93.3056 59.1906C93.3056 59.0101 93.3524 58.7627 93.3524 58.649C93.3524 58.4885 93.3056 58.308 93.105 58.2612C93.0113 58.2411 92.9913 58.2144 92.9913 58.1743C92.9913 58.0405 93.4192 58.0405 93.5329 58.0405C94.2083 58.0405 94.9772 58.2211 94.9772 59.0368C94.9772 59.5116 94.6161 59.9195 94.1146 59.9195L94.1213 59.9128ZM96.7626 59.9128C96.3547 59.9128 95.9267 59.6186 95.9267 59.1906C95.9267 59.0569 95.9735 58.7827 95.9735 58.6691C95.9735 58.4885 95.9267 58.308 95.7462 58.2612C95.6793 58.2411 95.6124 58.2144 95.6124 58.1743C95.6124 58.0405 96.0671 58.0405 96.1541 58.0405C96.903 58.0405 97.6251 58.2211 97.6251 59.0368C97.6251 59.5116 97.244 59.9195 96.7626 59.9195V59.9128Z" fill="white"/>
<path d="M110.791 71.1463C110.223 71.1463 109.3 70.919 109.3 70.1968C109.3 70.13 109.32 70.0831 109.394 70.0831C109.414 70.0831 109.441 70.1032 109.487 70.15C109.621 70.2837 109.828 70.3306 110.009 70.3306C111.747 70.3306 113.921 68.2978 113.921 66.5325C113.921 65.6499 113.172 65.0882 112.316 65.0882C111.052 65.0882 109.875 65.6766 108.785 66.2651C107.969 66.7198 107.448 66.9872 106.866 66.9872C106.284 66.9872 105.576 66.6061 105.576 65.924C105.576 65.563 105.689 65.1751 105.917 64.8609C106.144 64.5466 106.411 64.2524 106.552 64.2524C106.572 64.2524 106.599 64.2992 106.599 64.3192C106.599 64.4062 106.398 64.6803 106.398 64.794C106.398 65.1551 107.007 65.1751 107.281 65.1751C108.143 65.1751 108.932 64.7673 109.721 64.4262C110.785 63.9715 111.868 63.6372 113.025 63.6372C114.743 63.6372 115.987 64.6068 115.987 66.4189C115.987 69.1804 113.453 71.1463 110.805 71.1463H110.791Z" fill="white"/>
<path d="M128.043 67.6692C128.043 68.3913 128.538 68.9329 129.266 68.9329C130.129 68.9329 131.145 68.4782 131.888 68.0704C132.342 67.7962 132.837 67.5488 133.379 67.5488C134.281 67.5488 135.03 68.4114 135.03 69.2873C135.03 71.0727 132.61 71.3 131.319 71.3C129.24 71.3 126.364 70.5979 126.364 68.0436C126.364 66.3452 127.408 64.7671 128.558 63.6304C127.474 62.3867 126.859 60.7819 126.251 59.264C126.137 58.9497 125.89 58.2677 125.462 58.2677C125.442 58.2677 125.415 58.2677 125.348 58.2878C125.301 58.3078 125.281 58.3078 125.254 58.3078C125.208 58.3078 125.168 58.261 125.168 58.2142C125.168 58.0337 126.525 57.7595 127.16 57.7595C128.203 57.7595 128.604 58.2543 129.012 59.137C129.467 60.1801 129.915 61.2433 130.55 62.166C131.319 61.7849 132.182 61.4171 133.058 61.4171C133.646 61.4171 134.054 61.7782 134.054 62.3867C134.054 63.7641 132.697 65.1015 131.319 65.1015C130.617 65.1015 129.962 64.7872 129.4 64.3793C128.678 65.282 128.043 66.4589 128.043 67.6357V67.6692ZM132.382 63.8243C132.77 63.8243 132.971 63.4365 132.971 63.1022C132.971 62.7411 132.723 62.38 132.336 62.38C131.881 62.38 131.433 62.6742 131.072 62.9016C131.386 63.2827 131.841 63.831 132.382 63.831V63.8243Z" fill="white"/>
</svg>
