<svg width="364" height="464" viewBox="0 0 364 464" fill="none" xmlns="http://www.w3.org/2000/svg">
<path d="M364 232C364 360.13 260.13 464 132 464C3.86994 464 -100 360.13 -100 232C-100 103.87 3.86994 0 132 0C260.13 0 364 103.87 364 232Z" fill="#FCEE21"/>
<g opacity="0.7">
<path d="M243.835 245.028C281.73 194.786 267.793 121.487 211.283 87.8699C168.925 62.7068 113.666 69.7528 79.82 104.669C58.2856 126.913 48.7473 155.492 50.1012 183.405C51.9812 222.569 44.8936 261.507 33.0866 298.737L26.5944 319.128C20.3373 338.709 42.5979 355.499 59.7061 344.102L83.5942 328.197C115.115 307.317 150.483 293.285 187.161 283.326C209.044 277.381 229.128 264.528 243.776 245.107L243.835 245.028Z" stroke="#EADD1D" stroke-width="11"/>
<path d="M28.8162 358.179L21.5556 352.703C15.6068 348.216 7.19993 349.331 2.7784 355.193L2.71911 355.272C-1.70242 361.134 -0.464306 369.524 5.4845 374.01L12.7451 379.487C18.6939 383.974 27.1008 382.859 31.5223 376.996L31.5816 376.918C36.0031 371.056 34.765 362.666 28.8162 358.179Z" stroke="#EADD1D" stroke-width="11"/>
<path d="M1.86027 386.45L1.78048 386.39C-4.16833 381.903 -12.5751 383.018 -16.9967 388.88L-17.056 388.959C-21.4775 394.821 -20.2394 403.21 -14.2906 407.697L-14.2108 407.757C-8.26199 412.244 0.144848 411.129 4.56638 405.267L4.62567 405.188C9.0472 399.326 7.80908 390.937 1.86027 386.45Z" stroke="#EADD1D" stroke-width="11"/>
</g>
</svg>
