<svg width="364" height="464" viewBox="0 0 364 464" fill="none" xmlns="http://www.w3.org/2000/svg">
<path d="M132 0C174.473 0 214.28 11.4139 248.521 31.3408C243.104 40.6432 240 51.459 240 63C240 97.7939 268.206 126 303 126C314.277 126 324.861 123.035 334.018 117.846C353.104 151.55 364 190.502 364 232C364 360.13 260.13 464 132 464C3.86994 464 -100 360.13 -100 232C-100 103.87 3.86994 6.05767e-06 132 0Z" fill="#FCEE21"/>
<g opacity="0.7">
<path d="M201.855 350.182C191.379 355.045 184.134 361.736 171.858 356.162C165.625 353.33 162.338 347.343 154.546 349.571C143.312 352.781 137.795 373.639 129.974 374.905C125.07 375.701 126.881 370.173 122.894 370.915C119.968 371.462 113.738 381.962 110.55 382.168C105.559 382.496 107.382 373.309 103.025 370.797C97.9805 367.885 91.3018 371.955 85.8236 370.796C79.2599 369.406 74.5445 363.005 67.7314 367.509C65.2778 369.128 62.8002 373.273 59.5127 372.799C57.11 372.452 54.2497 369.653 51.2607 368.696C45.695 366.919 39.4384 368.677 35.262 363.05C33.3459 360.47 29.8789 345.582 29.7662 342.075C29.32 327.801 43.2682 310.644 43.3582 297.781C43.3886 293.461 40.1519 292.237 37.8426 289.293C33.986 284.373 30.8792 277.023 24.5074 274.938C18.4204 272.941 18.2806 278.26 15.3866 281.65C12.2747 285.297 2.77654 287.377 -1.45061 285.4C-3.21259 284.576 -4.58962 282.661 -6.26908 281.498C-10.5541 278.537 -15.1947 276.057 -19.4452 273.046C-28.2922 266.783 -29.9319 264.805 -30.6348 253.871C-30.8735 250.175 -31.4206 233.265 -30.3498 230.867C-27.9121 225.39 -16.4512 224.634 -13.4485 229.139C-12.108 231.149 -13.6337 237.408 -7.88886 233.777C-4.29473 231.505 -3.52033 229.146 1.68578 228.994C3.95357 228.928 11.525 230.671 12.3268 227.747C11.5295 223.121 7.46725 219.932 5.63054 215.652C1.27804 205.522 4.6335 193.753 1.23169 183.975C-2.17013 174.196 -6.71071 168.609 -6.08809 156.634C-5.85555 152.098 -4.12974 146.422 -4.2311 142.188C-4.33246 137.953 -7.41481 131.824 -6.52416 127.34C-5.78822 123.618 -3.11648 121.125 -2.0961 117.819C-0.326646 112.098 -3.98238 105.311 -1.68995 97.9447C1.79841 86.7437 7.53125 89.6559 14.5964 84.5323C19.4494 81.0107 19.1784 78.3835 26.4154 78.0074C38.426 77.3822 50.5146 84.8969 57.1212 94.601C59.0596 97.4512 60.7068 103.336 64.5098 104.128C67.1339 104.674 69.8426 99.2111 71.3958 97.5041C77.4795 90.8095 84.2925 92.6809 91.7695 95.6833C100.161 99.0501 108.274 103.601 116.556 107.24C127.359 111.986 131.242 113.811 143.107 114.254C148.835 114.468 157.32 112.598 161.299 117.402C162.292 118.601 168.391 135.067 168.762 137.116C169.218 139.641 169.061 141.791 166.691 143.355C163.456 145.492 149.339 142.586 144.405 143.364C136.635 144.593 134.455 150.68 130.581 156.394C128.782 159.047 123.114 165.006 124.138 168.119C124.621 169.589 126.464 169.832 127.681 169.115C129.834 167.846 135.318 158.456 137.858 155.761C139.191 154.346 141.569 152.677 143.482 152.283C146.965 151.562 166.238 152.765 169.822 153.735C173.854 154.828 175.859 157.134 177.518 160.787C181.584 169.752 184.395 182.927 187.552 192.58C188.89 196.665 191.64 207.072 193.424 209.984C197.237 216.209 209.376 217.749 216.184 216.911C240.509 213.906 247.024 189.598 265.69 183.965C271.909 182.088 278.691 183.356 282.337 176.407C283.902 173.424 284.443 167.997 288.002 166.856C292.749 165.337 295.971 171.18 299.135 173.484C303.189 176.435 309.811 178.438 314.819 178.069C319.826 177.699 326.202 173.63 330.536 175.983C332.836 177.23 340.94 188.342 342.459 191.074C346.974 199.191 339.5 198.683 337.092 202.593C335.106 205.818 336.291 210.466 333.249 212.603C329.479 215.252 323.254 209.843 319.399 213.729C313.699 219.473 318.392 232.91 312.413 236.99C310.059 238.595 305.17 237.41 302.96 238.663C298.73 241.058 300.679 247.231 293.447 246.966C290.412 246.854 282.423 244.017 281.944 249.227C281.456 254.544 293.314 255.877 288.713 265.128C279.61 275.991 271.304 288.323 261.818 298.784C255.554 305.692 243.67 313.77 234.12 309.309C230.153 307.456 226.897 301.413 222.612 302.365C220.121 302.92 218.16 305.052 217.267 307.382C215.951 310.805 215.459 323.503 216.078 327.23C217.202 333.981 225.975 332.409 226.594 336.12C226.989 338.502 225.412 339.793 223.585 340.893C218.65 343.862 209.348 346.371 203.769 348.978C203.022 349.326 202.477 349.891 201.855 350.182Z" fill="#EADD1D"/>
</g>
</svg>
