<svg width="96" height="96" viewBox="0 0 96 96" fill="none" xmlns="http://www.w3.org/2000/svg">
<path d="M96 48C96 21.4903 74.5097 -5.36442e-07 48 -5.36442e-07C21.4903 -5.36442e-07 0 21.4903 0 48C0 74.5097 21.4903 96 48 96C74.5097 96 96 74.5097 96 48Z" fill="#F2F6FD"/>
<path d="M48 91.5C72.0244 91.5 91.5 72.0244 91.5 48C91.5 23.9756 72.0244 4.5 48 4.5C23.9756 4.5 4.5 23.9756 4.5 48C4.5 72.0244 23.9756 91.5 48 91.5Z" stroke="#020202"/>
<path d="M35.53 75.88L35.02 74.95C35.5 74.8233 35.9967 74.6433 36.51 74.41C37.03 74.17 37.54 73.9 38.04 73.6C38.5467 73.2933 39.0267 72.97 39.48 72.63C39.94 72.2833 40.3567 71.9333 40.73 71.58C41.1033 71.2267 41.4133 70.8867 41.66 70.56C41.68 70.64 41.7167 70.7467 41.77 70.88C41.8233 71.0067 41.88 71.1333 41.94 71.26C42 71.38 42.0467 71.47 42.08 71.53C41.7467 71.9367 41.3367 72.35 40.85 72.77C40.3633 73.1833 39.8267 73.5867 39.24 73.98C38.66 74.3733 38.0533 74.7333 37.42 75.06C36.7867 75.3867 36.1567 75.66 35.53 75.88ZM37.41 70.59C37.3433 70.5233 37.23 70.4333 37.07 70.32C36.9167 70.2067 36.7433 70.09 36.55 69.97C36.3633 69.8433 36.1833 69.73 36.01 69.63C35.8433 69.53 35.71 69.46 35.61 69.42L36.13 68.62C36.25 68.6867 36.3967 68.7733 36.57 68.88C36.7433 68.9867 36.9233 69.1033 37.11 69.23C37.2967 69.35 37.4667 69.4633 37.62 69.57C37.7733 69.6767 37.89 69.7633 37.97 69.83L37.41 70.59ZM36.08 72.62C35.9933 72.5467 35.87 72.4633 35.71 72.37C35.5567 72.2767 35.3867 72.1833 35.2 72.09C35.0133 71.99 34.83 71.9 34.65 71.82C34.4767 71.74 34.33 71.68 34.21 71.64L34.68 70.81C34.8133 70.8567 34.97 70.9233 35.15 71.01C35.33 71.0967 35.51 71.19 35.69 71.29C35.8767 71.39 36.05 71.4867 36.21 71.58C36.37 71.6667 36.4933 71.74 36.58 71.8L36.08 72.62ZM45.06 74.98V74.21C45.14 74.2167 45.3033 74.2233 45.55 74.23C45.7967 74.23 46.1033 74.23 46.47 74.23C46.8367 74.23 47.24 74.23 47.68 74.23V72.14C47.38 72.14 47.0933 72.1433 46.82 72.15C46.5533 72.15 46.3267 72.1533 46.14 72.16C45.96 72.16 45.8433 72.1633 45.79 72.17V71.39C45.8967 71.3967 46.16 71.4033 46.58 71.41C47.0067 71.4167 47.5067 71.42 48.08 71.42C48.4533 71.42 48.7967 71.42 49.11 71.42C49.4233 71.4133 49.6867 71.41 49.9 71.41C50.12 71.4033 50.2633 71.3967 50.33 71.39V72.17C50.25 72.1567 50.04 72.15 49.7 72.15C49.36 72.1433 48.9433 72.14 48.45 72.14V74.23C48.87 74.23 49.2567 74.23 49.61 74.23C49.97 74.2233 50.2667 74.22 50.5 74.22C50.7333 74.2133 50.88 74.21 50.94 74.21V74.98C50.8667 74.9733 50.6933 74.97 50.42 74.97C50.1533 74.9633 49.8133 74.96 49.4 74.96C48.9933 74.96 48.54 74.96 48.04 74.96C47.7067 74.96 47.3733 74.96 47.04 74.96C46.7133 74.96 46.41 74.96 46.13 74.96C45.85 74.96 45.6133 74.9633 45.42 74.97C45.2333 74.97 45.1133 74.9733 45.06 74.98ZM59.46 72.35C59.3867 72.2567 59.28 72.1467 59.14 72.02C59 71.8933 58.8733 71.8 58.76 71.74C58.96 71.5933 59.1767 71.4067 59.41 71.18C59.65 70.9533 59.8867 70.7133 60.12 70.46C60.3533 70.2 60.56 69.9467 60.74 69.7C60.4533 69.7067 60.1133 69.7167 59.72 69.73C59.3333 69.7433 58.92 69.7567 58.48 69.77C58.0467 69.7833 57.6133 69.8 57.18 69.82C56.7467 69.8333 56.3367 69.8467 55.95 69.86C55.57 69.8733 55.2367 69.8867 54.95 69.9C54.6633 69.9067 54.45 69.9133 54.31 69.92L54.27 68.96C54.47 68.9667 54.76 68.9733 55.14 68.98C55.5267 68.98 55.96 68.9767 56.44 68.97C56.9267 68.9633 57.4267 68.9533 57.94 68.94C58.4533 68.9267 58.9467 68.9133 59.42 68.9C59.8933 68.8867 60.31 68.87 60.67 68.85C61.0367 68.8233 61.3033 68.8 61.47 68.78L62.06 69.25C61.92 69.4967 61.7467 69.7667 61.54 70.06C61.3333 70.3467 61.11 70.6333 60.87 70.92C60.63 71.2067 60.3867 71.4733 60.14 71.72C59.9 71.9667 59.6733 72.1767 59.46 72.35ZM55.67 76.33C55.6033 76.23 55.5033 76.11 55.37 75.97C55.2367 75.8233 55.11 75.7133 54.99 75.64C55.8967 75.1067 56.54 74.4033 56.92 73.53C57.3067 72.6567 57.4867 71.65 57.46 70.51H58.41C58.41 71.8367 58.1867 72.9833 57.74 73.95C57.2933 74.91 56.6033 75.7033 55.67 76.33Z" fill="#020202"/>
<path d="M34.0686 39.2589C34.0686 41.4034 35.8079 43.1427 37.9524 43.1427C40.0969 43.1427 41.8362 41.4034 41.8362 39.2589C41.8362 37.1143 40.0969 35.3751 37.9524 35.3751C35.8079 35.3751 34.0686 37.1143 34.0686 39.2589Z" stroke="#020202" stroke-linecap="round" stroke-linejoin="round"/>
<path d="M50.6804 32.2174C50.6804 33.9609 52.0946 35.3751 53.8381 35.3751C55.5816 35.3751 56.9958 33.9609 56.9958 32.2174C56.9958 30.4739 55.5816 29.0597 53.8381 29.0597C52.0946 29.0597 50.6804 30.4739 50.6804 32.2174Z" stroke="#020202"/>
<path d="M47.282 47.0814C47.282 49.7621 49.4561 51.9404 52.141 51.9404C54.8259 51.9404 57 49.7663 57 47.0814C57 44.3966 54.8259 42.2225 52.141 42.2225C49.4561 42.2225 47.282 44.3966 47.282 47.0814Z" stroke="#020202"/>
<path d="M41.3001 41.2346L47.7337 45.0297" stroke="#020202" stroke-linejoin="round" stroke-dasharray="1 1"/>
<path d="M51.035 33.6738L41.5281 37.7349" stroke="#020202" stroke-linejoin="round" stroke-dasharray="1 1"/>
</svg>
