<svg width="183" height="172" viewBox="0 0 183 172" fill="none" xmlns="http://www.w3.org/2000/svg">
<g clip-path="url(#clip0_1_3)">
<path d="M71.956 51.9514C72.5031 51.9514 72.7924 51.4025 72.7924 50.923C72.7924 50.4056 72.4402 49.8946 71.8931 49.8946C71.2516 49.8946 70.6101 50.311 70.0943 50.6328C70.5409 51.1817 71.1824 51.9514 71.956 51.9514Z" fill="#FF4800"/>
<path d="M35.6038 45.1625C35.6038 45.0048 35.4465 44.9039 35.283 44.9039C34.5157 44.9039 33.9371 45.7746 33.5535 46.355C34.1321 46.2919 35.6038 46.0017 35.6038 45.1625Z" fill="#FF4800"/>
<path d="M93.1069 53.1755C93.1069 53.6613 94.195 53.819 94.5535 53.819C95.1635 53.819 95.805 53.655 96.3522 53.4026C95.6164 53.0493 94.7485 52.8221 93.912 52.8221C93.6856 52.8221 93.1132 52.8221 93.1132 53.1755H93.1069Z" fill="#FF4800"/>
<path d="M165.069 19.1996C164.742 18.5118 163.786 18.4929 163.409 19.1554C159.434 26.0452 151.799 30.5438 143.17 29.9697C132.428 29.2567 123.73 20.5182 123.025 9.7418C122.83 6.75115 123.239 3.88038 124.138 1.24306C124.359 0.593198 123.837 -0.0629774 123.151 0.00642579C100.761 2.23995 88.5472 18.474 68.3208 23.9316C63.1447 25.2881 57.6353 25.7487 51.956 25.5026C44.2076 25.2061 36.0189 23.6224 28.2642 24.266C9.5535 25.2881 -3.66662 42.7399 0.911995 61.1065C4.29564 74.1164 16.5975 82.5079 29.0315 85.8455C39.4655 88.7605 50.2894 88.0412 60.9812 86.8046C69.5283 85.5301 79.9183 82.7035 82.6164 92.9941C84.2076 99.335 86.1195 97.663 89.6919 93.6755C95.1699 86.8361 99.6038 84.9181 108.094 84.7225C129.78 83.2902 150.245 78.186 161.805 58.0086C169.585 43.8125 170.157 29.8876 165.069 19.1932V19.1996ZM45.0063 53.6298C43.9497 53.6298 43.1761 52.9863 42.5661 52.2165C42.3397 56.2735 39.5158 62.5829 34.7359 62.5829C30.9812 62.5829 29.7611 58.3682 29.7611 55.2766C29.7611 53.1503 30.2453 51.0619 31.0441 49.1313C30.4969 49.2574 29.9183 49.3268 29.3774 49.3268C27.868 49.3268 26.3648 48.5571 26.3648 46.8473C26.3648 45.4655 27.6793 44.6895 27.9372 44.6895C27.9686 44.6895 28.0315 44.721 28.0315 44.7841C28.0315 44.8156 28 44.8787 27.9372 44.9418C27.7422 45.1374 27.7107 45.2321 27.7107 45.4592C27.7107 46.3614 28.7359 46.5507 29.4403 46.5507C30.3082 46.5507 31.1699 46.4561 32.0063 46.4245C32.7736 45.2952 33.7044 44.2667 35.151 44.2667C35.9497 44.2667 36.8805 44.7147 36.8805 45.6169C36.8805 47.2574 33.7988 48.2543 32.5472 48.6076C32.1636 49.8631 31.9372 51.1503 31.9372 52.4689C31.9372 55.0116 32.8994 58.9676 36.107 58.9676C39.8931 58.9676 41.0818 53.9769 41.0818 50.9862C41.0818 50.084 40.9875 49.2133 40.9875 48.3173C40.9875 47.9325 40.9875 47.6107 41.1447 47.6107C41.2076 47.6107 41.3082 47.7684 41.3711 47.9325C41.7233 48.9294 42.3334 49.2511 44.6101 49.636C45.7988 49.8316 47.0504 50.3742 47.0504 51.7938C47.0504 52.9232 46.0566 53.6298 45 53.6298H45.0063ZM70.4529 62.6081C67.5032 62.6081 63.4277 61.6112 63.4277 57.9707C63.4277 55.5542 64.9057 53.3018 66.5409 51.6929C65 49.9199 64.1321 47.6359 63.2705 45.4781C63.107 45.0302 62.7548 44.0648 62.1447 44.0648C62.1132 44.0648 62.0818 44.0648 61.9875 44.0964C61.9246 44.1279 61.8931 44.1279 61.8617 44.1279C61.7988 44.1279 61.7359 44.0648 61.7359 44.0017C61.7359 43.743 63.6604 43.3582 64.5598 43.3582C66.0378 43.3582 66.6101 44.0648 67.1887 45.3204C67.8302 46.8031 68.4717 48.311 69.3711 49.636C70.4592 49.0871 71.6793 48.576 72.9309 48.576C73.7673 48.576 74.3397 49.0934 74.3397 49.9578C74.3397 51.92 72.4151 53.8191 70.4592 53.8191C69.4655 53.8191 68.5346 53.3712 67.7296 52.7907C66.7044 54.0778 65.8051 55.7498 65.8051 57.4281C65.8051 58.4565 66.5095 59.2326 67.5346 59.2326C68.7548 59.2326 70.195 58.589 71.2579 58.0086C71.8994 57.6237 72.6038 57.2704 73.3774 57.2704C74.6604 57.2704 75.717 58.4944 75.717 59.7499C75.717 62.2926 72.2831 62.6144 70.4529 62.6144V62.6081ZM103.849 62.9299C102.151 62.9299 101.541 61.5481 101.12 60.1601C100.604 58.324 99.9309 56.1662 98.4277 54.8791C97.4026 55.3965 96.2768 55.7498 95.1258 55.7498C93.8428 55.7498 91.7925 55.1378 91.7925 53.5289C91.7925 52.4374 93.107 52.1156 93.9749 52.1156C95.1321 52.1156 96.2831 52.3427 97.3774 52.7592C99.7862 50.7338 101.837 46.7715 101.837 43.6169C101.837 43.3266 101.837 42.9102 101.547 42.7462C101.516 42.7146 101.484 42.7146 101.484 42.6515C101.484 42.5884 101.547 42.5253 101.61 42.5253C102.189 42.5253 104.723 43.844 104.723 46.4813C104.723 49.3458 102.157 52.2418 100.006 53.8822C102.283 55.1378 105.912 58.0338 105.912 60.8983C105.912 62.0907 105.044 62.9236 103.862 62.9236L103.849 62.9299ZM140.491 49.3458H131.635C131.478 50.5067 131.189 51.9516 131.189 53.144C131.189 53.756 131.415 54.2734 132.088 54.2734C132.472 54.2734 132.793 54.1788 133.465 53.9516C134.717 53.5352 136 53.1125 137.315 53.1125C139.591 53.1125 141.006 54.7845 141.006 57.0054C141.006 60.6711 137.157 63.7312 133.66 63.7312C132.214 63.7312 130.711 62.993 130.711 61.3525C130.711 61.1948 130.742 60.6143 130.969 60.6143C131.031 60.6143 131.063 60.6774 131.094 60.8099C131.289 61.485 132.12 61.6175 132.73 61.6175C134.818 61.6175 137.352 59.9771 137.352 57.6931C137.352 56.2104 136.069 55.6993 134.786 55.6993C133.824 55.6993 132.862 56.0211 131.516 56.57C130.522 56.9864 130.107 57.0874 129.654 57.0874C128.34 57.0874 127.409 55.9959 127.409 54.7403C127.409 53.0368 127.987 51.0367 128.308 49.3647H124.522C124.264 49.3647 123.818 49.4278 123.623 49.4278C123.497 49.4278 123.365 49.2701 123.239 49.0745C123.044 48.8158 122.95 48.6581 122.723 48.5571C122.629 48.5256 122.465 48.494 122.465 48.3931C122.465 48.2921 122.528 48.2669 122.623 48.2669H128.528L129.296 43.8251C129.359 43.4717 129.421 43.0869 129.421 42.7335C129.421 42.3171 129.327 42.1215 129.069 42.0269C128.975 41.9954 128.943 41.9638 128.943 41.9007C128.943 41.8061 129.006 41.7745 129.069 41.7745C129.742 41.7745 132.761 42.5443 132.472 44.2226L131.799 48.2795H137.83C138.698 48.2795 139.05 47.9577 139.598 47.3142C139.887 46.9924 140.208 46.7652 140.654 46.7652C141.359 46.7652 142 47.4088 142 48.1154C142 48.9546 141.233 49.371 140.491 49.371V49.3458Z" fill="#FF4800"/>
<path d="M2.83018 113.316C2.83018 111.14 2.74842 110.25 2.59119 109.689C2.50943 109.367 2.10691 108.881 1.86792 108.799C0.823894 108.477 0.5849 108.313 0.5849 108.155C0.5849 107.834 1.54716 107.834 2.3522 107.834C4.68553 107.834 9.18238 108.237 10.6289 110.092C11.1887 110.818 11.1887 112.187 11.1887 113.159V154.435C11.1887 156.693 9.33962 158.624 7.01257 158.624C4.44025 158.624 2.83647 156.687 2.83647 154.353V113.316H2.83018ZM28.6289 140.403C23.805 140.403 20.5912 137.5 18.5031 134.276C17.2956 132.421 16.4151 130.484 16.4151 129.841C16.4151 129.601 16.5786 129.519 16.7358 129.519C16.8176 129.519 16.9748 129.683 17.1384 129.923C17.9434 131.052 19.4717 131.134 20.3522 131.134C21.3145 131.134 24.3711 130.648 27.9057 130.087C28.7107 129.923 29.1887 129.847 29.9119 129.847C32.6415 129.847 34.8931 132.024 34.8931 134.844C34.8931 138.472 31.9182 140.409 28.6226 140.409L28.6289 140.403Z" fill="#FF4800"/>
<path d="M45.1824 133.626C45.1824 132.415 45.1824 129.677 44.6981 128.465C44.4591 127.904 44.2138 127.822 43.2516 127.5C43.0126 127.418 42.9308 127.336 42.9308 127.26C42.9308 127.02 43.5723 126.856 45.2641 126.856C47.5975 126.856 51.1321 127.02 52.6604 129.033C53.3836 129.998 53.5472 131.128 53.5472 132.825V146.611C53.5472 148.87 51.6981 150.8 49.3711 150.8C47.044 150.8 45.195 148.946 45.195 146.611V133.633L45.1824 133.626ZM79.1698 139.273C79.1698 145.482 78.7673 153.381 77.9623 156.769C76.2767 163.703 70.0063 171.363 62.6101 171.363C60.4403 171.363 59.2327 170.473 59.2327 169.83C59.2327 169.672 59.3962 169.59 59.5535 169.59C59.6352 169.59 60.195 169.83 60.2767 169.83C63.1698 169.83 66.8679 164.586 68.2327 161.287C70.6415 155.4 70.7233 148.39 70.7233 140.327V137.343C70.7233 135.33 70.7233 131.052 70.4025 129.039C70.239 128.074 69.8428 127.67 69.195 127.588C68.5535 127.506 68.4717 127.424 68.4717 127.267C68.4717 127.027 68.8742 126.863 70.4025 126.863C72.6541 126.863 75.1447 127.027 77.1509 127.992C78.8365 128.8 79.1572 130.251 79.1572 132.182V139.273H79.1698Z" fill="#FF4800"/>
<path d="M98.0566 130.03C98.0566 136.396 98.2201 140.024 99.3396 144.056C100.704 148.971 104.887 150.346 109.786 150.346H113.566C116.296 150.346 118.629 152.201 118.629 155.103C118.629 159.539 113.327 160.101 110.031 160.101C102.478 160.101 96.2893 156.712 93.3144 149.703C91.7861 146.075 91.3081 139.545 91.3081 134.301V118.339C91.3081 115.272 90.7484 114.629 90.1824 114.471C89.9434 114.389 89.6226 114.307 89.6226 114.067C89.6226 113.828 90.0251 113.745 91.0692 113.745C94.283 113.745 98.0629 114.793 98.0629 118.503V130.03H98.0566Z" fill="#FF4800"/>
<path d="M140.73 131.935C140.245 131.935 139.119 132.099 138.478 132.099C138.321 132.099 138.075 131.86 137.755 131.456C136.792 130.327 136.629 130.087 135.906 129.841C135.667 129.759 135.585 129.677 135.585 129.519C135.585 129.279 135.824 129.197 135.987 129.197H166.126C168.132 129.197 169.824 128.308 171.346 126.938C173.031 125.405 174.403 124.276 176.811 124.276C180.987 124.276 183 127.418 183 131.292C183 137.658 179.384 143.065 174.484 146.289C170.95 148.63 166.692 150.239 162.509 150.239C161.868 150.239 159.78 150.075 159.78 149.274C159.78 149.11 159.943 149.034 160.101 149.034H160.906C164.038 149.034 168.296 144.598 169.748 141.614C171.277 138.472 171.679 135.248 171.918 131.942H140.736L140.73 131.935ZM152.541 142.176C157.119 142.176 157.283 147.173 157.283 150.643C157.283 154.674 156.396 158.946 154.629 162.574C152.22 167.413 147.075 172.006 141.61 172.006C140.484 172.006 138.717 171.52 138.717 170.719C138.717 170.555 138.881 170.397 139.038 170.397C139.195 170.397 139.44 170.719 139.761 170.719C141.126 170.719 142.572 169.186 143.377 168.221C145.384 165.722 146.591 162.738 147.314 159.678C147.956 157.015 148.277 154.277 148.277 151.532C148.277 149.917 148.119 148.226 148.119 146.535C148.119 144.037 150.05 142.182 152.541 142.182V142.176Z" fill="#FF4800"/>
<path d="M123.761 127.279C127.038 124.945 127.635 120.238 124.88 117.146C122.811 114.818 119.333 114.212 116.604 115.695C114.862 116.642 113.73 118.187 113.264 119.91C112.61 122.32 111.415 124.547 109.969 126.579L109.176 127.689C108.415 128.762 109.428 130.188 110.686 129.822L112.447 129.304C114.761 128.629 117.176 128.44 119.585 128.528C121.025 128.579 122.491 128.181 123.761 127.279Z" fill="#FCEE21"/>
<path d="M108.548 130.101L108.217 129.633C107.945 129.249 107.415 129.159 107.033 129.432L107.028 129.435C106.646 129.708 106.556 130.239 106.827 130.623L107.159 131.091C107.43 131.475 107.96 131.565 108.342 131.292L108.348 131.289C108.73 131.016 108.82 130.485 108.548 130.101Z" fill="#FF4800"/>
<path d="M106.363 131.311L106.36 131.306C106.088 130.922 105.558 130.832 105.176 131.105L105.171 131.108C104.788 131.381 104.699 131.912 104.97 132.296L104.974 132.301C105.245 132.685 105.775 132.775 106.158 132.502L106.163 132.499C106.545 132.226 106.635 131.695 106.363 131.311Z" fill="#FF4800"/>
<path d="M127.686 114.313C127.428 114.149 127.302 113.834 127.377 113.531L128.667 108.08C128.818 107.436 129.547 107.133 130.094 107.487L132.748 109.203C133.296 109.556 133.333 110.357 132.824 110.767L128.516 114.263C128.277 114.458 127.943 114.477 127.686 114.307V114.313Z" fill="#FF4800"/>
<path d="M129.484 117.064C129.44 116.755 129.597 116.452 129.868 116.313L134.761 113.783C135.34 113.487 136.031 113.859 136.12 114.515L136.547 117.701C136.635 118.358 136.063 118.907 135.428 118.774L130.044 117.683C129.742 117.619 129.516 117.373 129.472 117.064H129.484Z" fill="#FF4800"/>
</g>
<defs>
<clipPath id="clip0_1_3">
<rect width="183" height="172" fill="white"/>
</clipPath>
</defs>
</svg>
